<?xml version="1.0" encoding="utf-8"?>
<!-- Generator: Adobe Illustrator 16.0.0, SVG Export Plug-In . SVG Version: 6.00 Build 0)  -->
<!DOCTYPE svg PUBLIC "-//W3C//DTD SVG 1.1//EN" "http://www.w3.org/Graphics/SVG/1.1/DTD/svg11.dtd">
<svg version="1.1" id="Layer_2" xmlns="http://www.w3.org/2000/svg" xmlns:xlink="http://www.w3.org/1999/xlink" x="0px" y="0px"
	 width="168.998px" height="133.001px" viewBox="222.5 332.5 168.998 133.001" enable-background="new 222.5 332.5 168.998 133.001"
	 xml:space="preserve">
<g id="pMHjP3_1_">
	<g>
		<g>
			<path fill="#FEFEFE" d="M223.498,373.501c0-14.667,0.07-29.334-0.067-43.999c-0.023-2.504,0.565-3.089,3.068-3.068
				c15.999,0.132,32,0.067,48,0.067c1,1.259,2,1.146,3,0c37.064,0,74.129,0.035,111.193-0.067c2.951-0.008,3.933,0.452,3.902,3.74
				c-0.189,20.774-0.096,41.551-0.096,62.327c-0.34,0.32-0.719,0.581-1.145,0.776c-4.148-0.703-6.323,1.749-7.859,5.048
				c-1.576,3.381-3.954,4.651-7.541,3.251c-1.528-0.4-2.779-1.363-4.163-2.056c-0.401-0.165-0.796-0.348-1.195-0.515
				c-1.647-0.502-3.284-1.047-5.043-0.608c-0.409,0.158-0.821,0.299-1.227,0.458c-4.559,3.517-4.121,7.937-2.299,12.601
				c0.323,0.547,0.633,1.104,0.951,1.653c0.419,0.697,0.852,1.387,1.481,1.925c1.396,1.106,3.117,1.262,4.766,1.638
				c5.516,0.944,9.447,4.053,12.15,8.854c1.411,2.869,2.082,5.935,2.433,9.089c-0.028,2.146,0.198,4.311-0.465,6.41
				c-0.648,1.587-1.826,2.622-3.396,3.247c-1.511,0.471-3.048,0.443-4.595,0.212c-0.494-0.069-0.979-0.192-1.455-0.339
				c-2.917-0.796-5.811-1.63-5.781-5.516c0.266-0.889,0.695-1.651-0.18-2.624c-2.521-2.805-1.979-5.514,0.574-7.996
				c-0.094-0.338-0.235-0.64-0.479-0.891c-0.968-0.458-1.904-0.054-2.85,0.059c-0.683,0.061-1.32-0.062-1.904-0.426
				c-0.771-0.833-1.128-1.908-1.688-2.863c-0.164-0.422-0.31-0.855-0.622-1.204c-0.067,0.4,0.226,0.682,0.341,1.021
				c0.246,0.725,0.701,1.356,0.957,2.083c0.302,1.172,0.334,2.339-0.017,3.507c-0.304,0.944-0.745,1.818-1.345,2.613
				c-1.636,1.621-3.508,2.785-5.868,2.991c-3.72-1.163-2.05-5.352-4.175-7.418c-1.18-3.438-2.229-6.896-1.783-10.606
				c0.229-2.852-0.174-5.737,0.453-8.566c0.408-1.463,1.162-2.756,1.996-4.006c1.312-1.885,2.68-3.742,3.268-6.024
				c0.928-2.599,1.73-5.239,2.633-7.846c0.482-1.283,1.17-2.45,2.021-3.52c1.119-1.354,1.56-3.051,2.286-4.603
				c0.704-1.57,1.179-3.224,1.728-4.85c0.354-1.018,0.732-2.027,1.051-3.06c0.422-1.249,0.825-2.504,1.143-3.789
				c0.096-0.456,0.226-0.898,0.365-1.341c0.583-3.094,1.178-6.181,1.677-9.289c0.807-3.046,0.31-6.152,0.438-9.226
				c-0.055-2.771,0.274-5.555-0.287-8.302c-0.146-0.446-0.252-0.909-0.341-1.368c-0.507-2.842-1.249-5.329-5-3.384
				c-0.36,0.248-0.735,0.47-1.11,0.69c-1.541,0.848-2.813,1.982-3.732,3.496c-0.221,0.384-0.471,0.745-0.727,1.104
				c-1.174,1.307-1.78,3.144-3.586,3.863c-0.468,0.018-0.877-0.132-1.227-0.442c-0.779-1.136-0.879-2.51-1.322-3.765
				c-0.19-0.619-0.31-1.254-0.391-1.894c-0.092-1.479-0.521-2.805-1.732-3.772c-1.391-1.285-2.94-1.471-4.631-0.684
				c-1.145,0.598-2.24,1.259-3.172,2.165c-2.354,2.528-3.906,5.494-4.857,8.799c-3.264,7.249-5.688,14.74-6.669,22.66
				c-0.991,11.147-2.885,22.237-1.89,33.49c0.387,1.65,0.371,3.331,0.4,5.009c0.443,6.22-0.521,12.172-3.381,17.765
				c-1.281,2.307-2.675,3.709-4.593,0.532c-2.062-4.988-2.578-10.494-5.103-15.329c-0.564-1.468-1.051-2.978-2.178-4.153
				c-1.042-1.152-1.701-2.518-2.209-3.951c-0.35-0.242-0.446-1.519-1.123-0.224c0.092,0.372,0.181,0.714,0.309,1.062
				c0.537,1.391,1.359,2.638,1.812,4.058c0.141,0.464,0.229,0.93,0.289,1.408c0.125,2.526,0.291,5.05-0.285,7.547
				c-0.506,1.465-0.859,3.031-2.446,3.801c-1.368,0.316-2.484-0.22-3.519-1.035c-1.795-1.959-2.714-4.411-3.791-6.774
				c-1.042-3.054-3.392-4.951-5.936-6.675c-0.383-0.222-0.746-0.473-1.103-0.731c-1.714-1.565-3.972-1.891-6.044-2.645
				c-0.631-0.355-1.088-0.862-1.359-1.536c-0.089-0.739,0.204-1.357,0.607-1.94c1.974-2.764,3.415-5.747,3.752-9.184
				c0.261-1.117,0.718-2.166,1.097-3.241c0.272-0.782,0.523-1.577,0.424-2.414c-0.2-1.699-0.659-3.748-2.608-3.59
				c-2.779,0.227-1.162,2.451-1.074,3.872c0.061,0.983,0.258,1.958,0.164,2.953c-0.043,0.459-0.137,0.91-0.257,1.354
				c-0.707,2.169-1.093,4.43-1.831,6.594c-0.127,0.455-0.291,0.895-0.464,1.333c-0.888,1.973-1.543,4.237-4.493,3.721
				c-3.93-2.742-5.289-7.368-7.993-11.013c-1.164-1.568-2.015-3.371-3.491-4.714c-2.436-2.655-4.955-5.219-8.055-7.126
				c-1.823-1.499-3.819-2.043-5.815-0.526c-1.117,0.849-1.604,2.113-0.23,3.317c1.943,1.78,3.677,3.801,6.04,5.079
				c4.007,2.614,7.441,5.845,10.398,9.602c0.466,2.588,5.214,4.765,0.774,7.839c-4.737,0.631-9.475,1.261-14.212,1.882
				c-0.771,0.207-1.556,0.327-2.35,0.391c-1.556,0.076-3.108,0.077-4.616-0.403c-7.053-4.944-13.834-10.222-19.451-16.829
				c-2.056-2.417-3.506-5.214-4.668-8.159c-0.341-0.635-0.632-1.29-0.799-1.994c-0.113-0.961,0.037-1.912,0.113-2.866
				c0.256-2.599-0.377-5.344,1.244-7.718c0.267-0.371,0.577-0.712,0.9-1.034c1.166-0.984,1.793-2.446,2.938-3.404
				c0.027-0.263,0.804-0.111,0.446-0.506c-0.433-0.477,0.369-0.017-0.276,0.268c-1.163,0.935-1.967,2.205-3.237,2.96
				c-0.825,0.646-1.583,1.367-2.258,2.174c-0.852,0.984-1.237,2.185-1.574,3.41c-0.306,0.886-0.783,1.64-1.607,2.133
				C224.276,373.926,223.86,373.838,223.498,373.501z"/>
			<path fill-rule="evenodd" clip-rule="evenodd" fill="#FEFEFE" d="M391.455,392.517c0.348-0.006,0.695-0.011,1.043-0.016
				c0,23.445-0.086,46.892,0.098,70.336c0.025,3.313-0.988,3.734-3.917,3.729c-45.727-0.092-91.454-0.064-137.181-0.064
				c1.179-2.502-1.133-1.771-2.115-2.265c-0.925-0.294-1.845-0.599-2.765-0.918c-16.957-9.281-21.639-26.744-12.665-43.774
				c0.226-0.448,0.501-0.867,0.805-1.267c1.861-2.385,4.696-3.424,7.075-5.104c0.432-0.251,0.889-0.439,1.364-0.588
				c7.017-2.47,10.504,2.2,13.975,6.911c0.106,1.068-0.206,1.951-1.138,2.556c-1.244,0.673-2.694,0.639-3.984,1.15
				c-1.825,0.678-3.375,1.785-4.789,3.102c-0.78,0.741-1.665,1.339-2.572,1.905c-2.071,1.232-3.397,3.189-4.856,5.018
				c-2.759,2.636-2.239,5.654-1.037,8.754c0.903,2.329,1.967,4.578,3.329,6.674c1.905,2.845,4.849,4.43,7.593,6.253
				c1.094,0.746,2.197,1.473,3.477,1.873c2.673,0.681,5.332,0.696,7.976-0.129c1.308-0.482,2.602-1.003,3.965-1.312
				c2.818-0.521,5.106-2.086,7.348-3.744c7.971-6.084,9.406-12.396,4.852-21.121c-1.331-2.552-3.154-5.351,1.823-6.052
				c4.46,0.502,7.958,3.002,11.126,5.84c3.051,2.732,6.155,5.394,9.295,7.986c0.328-0.144,1.015,1.438,0.99-0.264
				c-5.242-5.314-7.291-12.207-9.6-18.96c-1.03-3.013-2.657-5.733-4.028-8.585c0.182-4.774,3.521-3.095,6.096-2.993
				c0.968,0.217,1.834,0.653,2.621,1.25c1.238,1.037,2.319,2.244,3.5,3.348c1.279,1.312,2.599,2.595,3.315,4.337
				c0.588,1.729,1.56,3.317,1.916,5.135c0.426,2.06-0.914,3.238-2.351,4.437c1.376,1.291,3.22,0.169,4.567,1.085
				c0.874,0.528,1.41,1.31,1.729,2.261c0.27,0.94,0.288,1.899,0.207,2.861c-0.307,1.892,0.057,3.685,1.764,4.647
				c1.928,1.089,1.635-2.11,3.223-1.984c2.105-0.305,3.564,1.007,5.139,2.039c1.312,1.068,1.838,2.595,2.385,4.107
				c0.227,0.602,0.404,1.221,0.604,1.83c0.343,0.994,0.992,1.792,1.679,2.566c1.276,1.747,2.893,3.094,4.8,4.103
				c0.986,0.533,2.006,0.982,3.076,1.322c2.402,0.769,5.438,0.206,6.791,3.196c0.516,1.047,0.818,2.181,1.315,3.234
				c1.567,2.893,3.501,5.251,7.226,5.046c1.766,0.034,3.482-0.076,4.806-1.465c1.127-1.211,0.954-2.56,0.415-3.943
				c-0.489-1.205-1.354-2.06-2.479-2.674c-0.58-0.306-1.158-0.608-1.746-0.897c-2.372-1.588-5.271-1.337-7.842-2.255
				c-0.439-0.292-0.75-0.679-0.955-1.162c-0.5-1.615-0.486-3.168,0.537-4.604c0.428-0.357,0.91-0.612,1.442-0.777
				c1.884-0.45,3.807-0.283,5.716-0.349c4.146,0.567,7.778-2.201,11.895-1.849c1.674,0.182,3.206,0.689,4.418,1.926
				c1.402,2.259-0.137,4.549,0.076,6.82c-0.018,0.935-0.053,1.872-0.029,2.805c-0.003,1.575,0.514,2.909,1.826,3.867
				c4.874,2.357,5.506,2.103,7.381-2.987c-0.684-2.896-3.342-4.255-4.977-6.411c-0.369-0.666-0.548-1.382-0.587-2.139
				c0.088-1.628,0.425-3.073,2.441-3.247c1.46,0.222,2.573,1.245,3.933,1.694c3.753,0.988,7.415,1.627,9.967-2.393
				c1.225-1.678,1.453-3.853,2.735-5.499c3.15-7.274-0.193-12.951-4.52-18.378c-2.517-2.926-5.768-1.735-8.841-1.568
				c-0.512,0.04-1.013,0.029-1.521-0.01c-2.576-0.443-5.604,0.094-6.865-3.178c-0.67-1.84-0.602-3.753-0.565-5.663
				c0.393-4.131,2.716-6.699,6.537-8.049c2.372-0.399,4.091,1.413,6.22,1.849c0.428,0.214,0.788,0.513,1.088,0.883
				c0.842,1.625,1.795,3.202,2.375,4.957c0.569,1.019-0.164,3.101,1.857,2.865c1.188-0.14,0.783-1.605,0.801-2.561
				c-0.199-1.145-0.441-2.284-0.173-3.449c1.377-3.262,2.847-6.463,5.85-8.619C389.465,395.252,390.355,393.766,391.455,392.517z"/>
			<path fill-rule="evenodd" clip-rule="evenodd" fill="#FDFDFD" d="M235.499,419.047l0.052-0.103
				c-2.209,2.021-5.053,3.414-6.289,6.394c-2.4,5.723-3.094,11.628-1.958,17.731c0.132,11.232,6.764,16.856,16.841,19.502
				c0.901,0.335,1.749,0.79,2.635,1.162c1.06,0.768,3.002,0.683,2.718,2.768c-7.667,0-15.336-0.12-22.999,0.068
				c-2.509,0.062-3.077-0.567-3.067-3.068c0.106-25.666,0.065-51.333,0.065-77c3.02,0.366,2.449,4.013,4.679,5.1
				c2.293,2.783,4.766,5.372,7.839,7.323c2.193,2.434,5.031,4.113,7.407,6.342c2.365,2.219,3.229,4.456,0.732,7.113
				c-0.514,0.466-1.203,0.684-1.691,1.189l0.117-0.111C240.141,415.219,235.894,414.692,235.499,419.047z"/>
			<path fill-rule="evenodd" clip-rule="evenodd" fill="#272727" d="M224.634,373.627c0.271-0.721,0.542-1.442,0.813-2.163
				c0.531-0.324,1.004-0.256,1.424,0.201c1.138,4.628-0.78,9.48,1.04,14.06c0.221,1.534,0.867,3.095-0.243,4.558
				c-4.13-1.123-2.491-5.342-4.17-7.781c0-0.333,0-0.667,0-1C224.951,379.031,223.003,376.071,224.634,373.627z"/>
			<path fill-rule="evenodd" clip-rule="evenodd" fill="#757575" d="M249.498,466.501c-0.521-1.54-2.448-0.653-3.175-1.837
				c0.757-1.348,2.166-1.06,3.349-1.337c1.513,0.13,2.908,0.57,4.113,1.531c-0.458,1.003-2.075,0.339-2.287,1.643
				C250.832,466.501,250.165,466.501,249.498,466.501z"/>
			<path fill-rule="evenodd" clip-rule="evenodd" fill="#C1C1C1" d="M223.498,382.501c2.577,2.086,1.209,6.066,3.893,8.102
				c0.151,0.111,0.302,0.224,0.454,0.336c0.234,0.56,0.246,1.082-0.263,1.513c-2.994-0.863-2.221-4.312-4.084-5.95
				C223.498,385.168,223.498,383.834,223.498,382.501z"/>
			<path fill-rule="evenodd" clip-rule="evenodd" fill="#A1A1A1" d="M224.634,373.627c-0.529,2.604,0.808,5.475-1.136,7.874
				c0-2.667,0-5.333,0-8C223.876,373.543,224.255,373.585,224.634,373.627z"/>
			<path fill-rule="evenodd" clip-rule="evenodd" fill="#FAFAFA" d="M277.498,326.501c-0.046,1.326-0.768,2.275-2.034,2.245
				c-1.502-0.036-0.735-1.44-0.966-2.245C275.498,326.501,276.498,326.501,277.498,326.501z"/>
			<path fill-rule="evenodd" clip-rule="evenodd" fill="#FDFDFD" d="M360.589,387.444c-0.682,0.958-1.363,1.916-2.044,2.874
				c-1.611,1.556-2.094,3.729-3.073,5.631c-0.472,1.251-0.954,2.496-1.358,3.774c-0.697,1.52-1.447,3.009-2.456,4.355
				c-1.042,0.946-2.146,1.385-3.425,0.432c-0.697-2.81-0.358-5.679-0.504-8.525c1.296-13.404,1.834-26.922,6.014-39.885
				c1.027-1.608,2-3.256,2.661-5.066c0.165-0.436,0.358-0.859,0.552-1.282c0.809-1.735,1.15-3.614,1.666-5.447
				c3.438-4.903,5.533-5.058,9.549-0.715c0.426,1.375,0.279,2.794,0.322,4.199c-0.035,3.376,0.086,6.753-0.084,10.126
				c-1.034,4.149-1.918,8.324-1.917,12.633l0.049-0.083c-1.081,0.782-1.021,2.141-1.599,3.179c-0.512,0.93-0.459,2.046-0.982,2.972
				c-0.621,1.832-1.284,3.649-1.875,5.489C361.261,383.793,360.383,385.467,360.589,387.444z"/>
			<path fill-rule="evenodd" clip-rule="evenodd" fill="#080808" d="M295.263,409.603c-0.588-0.409-1.176-0.818-1.764-1.229
				c-0.974-0.646-2.155-0.793-3.175-1.316c-1.014-0.521-2.1-1.421-2.999-0.063c-0.749,1.129-1.067,2.45,0.471,3.382
				c2.519,2.967,4.192,6.51,5.111,10.135c1.74,6.862,4.919,12.812,9.446,18.141c-0.303,2.467-1.732,1.11-2.842,0.838
				c-6.406-4.078-10.939-10.658-18.188-13.601c-0.575-0.232-1.249-0.22-1.877-0.321c-2.291-1.252-3.989-0.345-5.421,1.499
				c-0.167,2.607-1.184,3.946-3.682,2.042c-1.489-1.135-2.897-2.155-4.862-2.008c-0.729-0.195-1.236-0.631-1.466-1.36
				c-0.049-0.473,0.041-0.922,0.245-1.349c1.381-1.428,4.172-0.441,4.959-2.903c0.329-0.36,0.715-0.626,1.161-0.818
				c1.195-0.4,2.433-0.438,3.673-0.479c2.298-0.004,4.596-0.073,6.89,0.057c1.956,0.188,3.709,0.913,5.285,2.02
				c0.235,0.153,0.491,0.325,0.75,0.487c0.133-0.529-0.29-0.829-0.522-1.226c-3.409-4.554-5.127-10.49-10.906-13.03
				c-1.589-1.109-3.812-0.449-5.288-1.882c-0.651-1.354-0.25-2.411,0.917-3.249c0.907-0.477,1.896-0.314,2.856-0.353
				c1.811-0.106,3.028-0.826,1.68-2.663c-1.335-1.82-1.816-4.142-3.54-5.696c-1.358-1.371-2.756-2.71-3.473-4.571
				c-0.297-1.541-0.323-3,1.245-3.951c2.058-0.392,2.781,1.142,3.832,2.453c3.097,3.867,4.937,8.577,8.323,12.229
				c1.292,1.041,2.513,0.024,3.764-0.144c0.701,0.009,1.29,0.286,1.799,0.753c0.302,0.293,0.605,0.587,0.907,0.88
				c2.198,1.429,4.917,1.619,7.137,2.995l-0.088-0.021c2.323,2.377,4.995,4.423,6.875,7.222c1.107,2.35,2.908,4.372,3.309,7.053
				c-0.188,0.136-0.377,0.271-0.565,0.408c-0.458,0.112-0.913,0.104-1.363-0.04c-1.056-0.943-1.499-2.288-2.245-3.436
				c-0.766-1.537-2.802-2.041-3.172-3.899C297.745,411.218,296.821,410.07,295.263,409.603z"/>
			<path fill-rule="evenodd" clip-rule="evenodd" fill="#0C0C0C" d="M271.516,403.701c-0.333,0.827-0.665,1.654-0.998,2.482
				c-1.675,2.33-4.566,1.978-6.791,3.094c-1.363,0.407-2.788,0.406-4.169,0.602c-1.033,1.733-1.033,1.733,2.325,4.03
				c2.625,2.451,6.675,3.479,7.613,7.61l-0.029,0.058c-1.304,1.573-3.472,1.677-4.968,2.924c-0.004,0.345-0.009,0.688-0.013,1.033
				c-2.404,1.451-4.186,1.433-3.984-2.011c0.08-1.373-0.478-2.261-1.358-2.973c-3.695-2.986-6.666-6.859-11.03-9.04
				c-0.288-0.43-0.467-0.894-0.555-1.401c-0.162-2.851,1.4-4.383,3.938-5.17c1.998-0.156,4.071,0.657,6-0.454
				c0.576-0.041,1.152-0.082,1.729-0.123C263.334,404.343,267.375,403.099,271.516,403.701z"/>
			<path fill-rule="evenodd" clip-rule="evenodd" fill="#2C2C2C" d="M265.495,358.597c3.016-1.005,4.556,1.46,6.34,2.941
				c2,1.659,3.105,1.703,4.724-0.542c2.442-3.387,5.548-6.235,9.174-8.375c1.559-0.92,3.29-1.688,5.042-2.107
				c2.917-0.697,6.237-0.15,7.572,2.322c1.12,2.074-2.023,3.403-3.528,4.788c-5.099,4.692-10.637,8.9-14.985,14.403
				c-1.354,1.713-3.43,1.925-5.387,0.547c-0.226-0.242-0.325-0.502-0.297-0.777c0.028-0.285,0.074-0.427,0.132-0.427
				c2.066-1.136,2.918-2.889,2.623-5.221c1.172-1.498,1.843-3.864,4.576-2.682c1.137,1.124,1.829-0.006,2.405-0.638
				c3.005-3.301,6.927-5.62,9.652-9.311c-6.212,0.174-9.553,4.832-13.404,8.682c-1.784,1.977-3.617,3.87-6.582,3.807
				C269.853,364.645,267.088,362.257,265.495,358.597z"/>
			<path fill-rule="evenodd" clip-rule="evenodd" fill="#101010" d="M350.403,417.517c0.399,3.225,0.8,6.449,1.198,9.674
				c2.84,1.711-0.399,6.046,3.207,7.417c0.086,0.033,0.269-0.054,0.337-0.14c0.097-0.122,0.129-0.294,0.188-0.444
				c1.605-0.896,3.211-1.792,4.816-2.688c0.919-0.234,1.76-2.042,2.787-0.142c0.377,2.193-1.055,3.717-2.085,5.346
				c-1.031,1.632-1.288,3.33-0.977,5.179c-0.146,0.788-0.652,1.167-1.419,1.25c-0.704,0.02-1.407,0.032-2.095-0.161
				c-2.181-0.169-4.179-0.868-6.017-2.047c-0.746-0.339-1.945-0.753-1.82-1.45c1.025-5.718-2.629-10.738-2.314-16.316
				c-0.241-2.117,0.8-4.448-1.064-6.295c-0.368-0.263-0.706-0.553-1.037-0.857c-1.472-1.623-1.79-3.166,0.328-4.523
				c0.422-0.133,0.843-0.11,1.255,0.031c1.358,0.657,3.554-0.951,4.25,1.545C350.197,414.427,349.559,416.046,350.403,417.517z"/>
			<path fill-rule="evenodd" clip-rule="evenodd" fill="#101010" d="M251.501,405.515c-1.491,1.383-3.538,2.431-3.032,5.02
				c-2.979-1.155-2.758-5.516-6.211-6.196c-1.74-1.448-4-2.224-5.367-4.152c-3.417-2.965-6.955-5.811-9.537-9.604l0.037,0.021
				c0.442-1.496-0.291-2.799-0.686-4.156c1.947-2.383-0.781-5.834,1.842-8.062c0.332,0.342,0.663,0.685,0.995,1.027
				c1.518,8.64,7.925,13.625,14.128,18.7c2.278,1.864,4.836,3.389,6.913,5.518C251.102,404.154,251.428,404.772,251.501,405.515z"/>
			<path fill-rule="evenodd" clip-rule="evenodd" fill="#171717" d="M328.308,369.441c0.776-8.134,3.3-15.742,6.914-23.023
				c2.19-2.763,3.509-6.026,5.222-9.063c0.539-1.2,1.817-1.353,2.775-1.959c1.016-0.498,2.072-0.425,3.139-0.224
				c0.966,0.745,1.033,1.741,0.79,2.823c-0.7,1.574-2.383,2.499-2.816,4.256c-2.349,4.346-3.237,9.237-5.136,13.751
				c-0.557,1.321-0.566,2.942-2.104,3.702c-1.488-0.082-1.704-1.548-2.55-2.332c-0.29-0.376-0.514-0.79-0.677-1.236
				c-0.147-0.643-0.091-1.276-0.077-1.312c-0.471,4.011-2.336,8.316-3.071,12.902c-0.195,0.716-0.505,1.367-1.041,1.895
				C329.186,369.809,328.73,369.748,328.308,369.441z"/>
			<path fill-rule="evenodd" clip-rule="evenodd" fill="#121212" d="M265.495,358.597c2.67,2.269,5.34,4.537,8.01,6.806
				c1.631-0.723,3.015-0.559,3.981,1.108c1.76,3.281,0.917,5.021-2.946,4.969c-1.022,0.743-1.604-0.291-2.369-0.585
				c-2.406-0.999-3.95-2.87-5.148-5.09c-1.661-2.055-3.265-4.173-5.855-5.176c-1.895-1.021-3.79-2.042-5.685-3.063
				c1.271-2.933,3.574-1.191,5.488-1.212C262.203,357.657,263.854,358.116,265.495,358.597z"/>
			<path fill-rule="evenodd" clip-rule="evenodd" fill="#E0E0E0" d="M305.807,419.554c0.955,0.338,1.91,0.675,2.866,1.013
				c1.655,0.439,1.692-0.854,1.992-1.868c0.392-0.896,0.88-1.69,1.931-1.924c0.769-0.109,1.484,0.027,2.145,0.438
				c2.77,3.137,3.412,7.14,4.473,10.976c0.18,0.738,0.221,1.483,0.104,2.236c-0.328,1.306-1.062,2.209-2.458,2.441
				c-1.443-0.204-2.613-1.099-3.952-1.577c-3.062-1.655-5.06-4.242-6.451-7.363c-0.409-1.474-2.253-2.613-1.07-4.468
				L305.807,419.554z"/>
			<path fill-rule="evenodd" clip-rule="evenodd" fill="#272727" d="M371.498,415.497c0.33-0.018,0.66-0.036,0.99-0.055
				c2.945,1.313,6.539-0.432,9.255,1.964c5.802,5.687,7.88,14.476,4.758,20.112c-2.319-3.622-0.911-8.057-2.698-11.888
				c-1.443-3.097-2.242-0.882-3.35-0.031c-3.081-4.037-6.879-7.026-11.938-8.173C368.284,414.888,370.928,416.797,371.498,415.497z"
				/>
			<path fill-rule="evenodd" clip-rule="evenodd" fill="#0F0F0F" d="M380.453,425.6c0.152-1.616,0.127-3.299,1.919-4.654
				c4.19,4.871,4.292,10.686,4.129,16.573c-1.511,1.48-0.786,4.16-2.861,5.339c-0.463-0.332-0.676-0.783-0.639-1.351
				c-0.177-2.333,0.444-4.71-0.378-7.008C381.899,431.532,381.176,428.565,380.453,425.6z"/>
			<path fill-rule="evenodd" clip-rule="evenodd" fill="#2C2C2C" d="M250.473,404.53c-6.428-5.561-14.313-9.471-18.839-17.204
				c-1.497-2.557-2.58-4.958-2.092-7.915c3.245,8.104,9.265,13.844,16.033,18.989c2.477,1.884,5.291,3.386,7.191,5.971
				C252.051,405.132,251.28,405.095,250.473,404.53z"/>
			<path fill-rule="evenodd" clip-rule="evenodd" fill="#0E0E0E" d="M367.3,343.63c-4.144-3.442-5.439-3.134-7.837,1.864
				c-1.803,1.205-1.921,3.082-1.986,4.98l-0.006,0.014c-0.995,1.025-1.134,2.647-2.42,3.474c-0.807,0.124-1.488-0.04-1.906-0.822
				c-0.898-4.223,1.752-7.41,3.193-10.95c-0.09-0.287-0.011-0.514,0.239-0.68c1.73-1.255,3.288-2.706,4.802-4.208l-0.093-0.049
				c3.625-1.625,5.675,0.274,7.247,3.239c0.208,0.228,0.251,0.482,0.129,0.766C369.023,342.517,369.305,343.73,367.3,343.63z"/>
			<path fill-rule="evenodd" clip-rule="evenodd" fill="#111111" d="M318.344,428.813c-1.293-3.745-2.586-7.489-3.879-11.233
				c-1.088-1.145-1.377-2.637-1.784-4.081c-0.276-1.281-0.337-2.544,0.36-3.73c1.199-1.102,1.772-0.196,2.339,0.731
				c3.597,4.699,3.489,10.598,5.159,15.92c0.215,0.229,0.313,0.478,0.297,0.744c-0.018,0.275-0.054,0.413-0.1,0.4
				C319.841,427.771,318.972,428.062,318.344,428.813z"/>
			<path fill-rule="evenodd" clip-rule="evenodd" fill="#161616" d="M328.308,369.441c0.394,0.02,0.786,0.039,1.181,0.06
				c1.727,7.62,1.098,15.227-0.215,22.812c-0.532,3.08-1.152,6.144-1.548,9.25c-0.21,0.882-0.563,1.676-1.361,2.191
				c-2.082-5.407-0.126-10.81,0.198-16.177C326.928,381.527,326.23,375.336,328.308,369.441z"/>
			<path fill-rule="evenodd" clip-rule="evenodd" fill="#171717" d="M370.491,400.594c-2.703,1.694-5.782,3.062-6.009,6.909
				c-0.91,1.322-0.338,2.821-0.504,4.231c-0.133,1.118-0.059,2.418-1.855,1.929c-0.234-0.331-0.471-0.662-0.705-0.993
				c-0.674-1.232-0.248-2.683-0.781-3.942c-0.186-1.588-0.154-3.179-0.043-4.77c1.018-2.33,1.765-4.826,3.902-6.483
				c0.314-0.051,0.629-0.102,0.943-0.151c1.955,0.764,4.135,0.355,6.082,1.161l-0.031,0.029
				C372.07,399.646,371.168,400.065,370.491,400.594z"/>
			<path fill-rule="evenodd" clip-rule="evenodd" fill="#4A4A4A" d="M323.169,426.352c2.608-5.67,3.539-11.653,3.328-17.851
				c0.493-0.344,0.949-0.299,1.368,0.131c0.77,1.113,0.847,2.394,0.9,3.68c-0.035,2.569,0.223,5.187-0.399,7.693
				c-0.501,2.021,0.39,3.406,1.49,4.83c0.279,0.436,0.489,0.898,0.659,1.384c0.412,3.177,2.739,6.435-0.377,9.465
				c-2.379-0.832-2.051-3.185-2.579-4.943c-0.418-1.392-0.852-2.322-2.397-2.38C324.46,427.726,325.498,425.37,323.169,426.352z"/>
			<path fill-rule="evenodd" clip-rule="evenodd" fill="#2C2C2C" d="M356.338,342.189c-0.938,3.772-1.878,7.544-2.817,11.316
				c-1.993,6.28-3.574,12.685-5.738,18.916c-1.225,0.707-1.951-0.001-2.608-0.914c-0.127-5.276,2.117-10.029,3.316-15.016
				c1.646-3.334,2.492-7.084,5.09-9.934C354.507,345.106,354.717,343.202,356.338,342.189z"/>
			<path fill-rule="evenodd" clip-rule="evenodd" fill="#525252" d="M391.455,392.517c0.686,2.569-0.993,3.407-2.957,4.036
				c-2.465-0.896-2.965,1.211-3.831,2.601c-1.214,1.947-2.124,4.127-4.545,4.958c-1.66,0.457-2.679-0.896-3.996-1.411l0.213-0.137
				l0.108,0.229c-0.289-0.741-1.493-1.071-0.979-2.175c4.575,2.009,6.314-0.931,7.84-4.413
				C384.895,392.583,387.497,391,391.455,392.517z"/>
			<path fill-rule="evenodd" clip-rule="evenodd" fill="#1E1E1E" d="M282.355,401.562c-4.889-3.127-5.848-9.218-9.827-13.031
				c-0.692-0.663-1.347-1.364-2.019-2.048c-0.931-0.489-1.602-1.086-0.933-2.241c0.712-0.365,1.375-0.284,1.994,0.215
				c4.83,4.546,7.123,10.815,10.917,16.065c0.245,0.266,0.307,0.509,0.187,0.729C282.56,401.457,282.453,401.562,282.355,401.562z"
				/>
			<path fill-rule="evenodd" clip-rule="evenodd" fill="#0B0B0B" d="M228.547,378.384c-0.852,2.633,1.772,6.062-1.844,8.062
				c-1.375-4.898-1.313-9.812-0.14-14.734c3.533,0.101,1.65,3.375,2.842,4.848C229.119,377.167,228.833,377.775,228.547,378.384z"/>
			<path fill-rule="evenodd" clip-rule="evenodd" fill="#060606" d="M313.513,409.487c-0.006,1.336-0.011,2.673-0.017,4.009
				c0.225,1.403,0.164,2.677-1.467,3.24c-2.304-2.427-0.05-5.656-1.449-8.243c-0.267-0.172-0.348-0.407-0.242-0.705
				c-0.453-1.487-0.443-3.21-2.082-4.094l0.231-0.187l-0.222,0.199c-0.246-0.996-0.448-2.041,0.803-2.478
				c1.166-0.408,1.82,0.403,2.373,1.278c0.68,1.362,1.36,2.725,2.041,4.087C314.164,407.552,314.251,408.516,313.513,409.487z"/>
			<path fill-rule="evenodd" clip-rule="evenodd" fill="#0A0A0A" d="M383.469,441.406c0.057,0.484,0.113,0.968,0.171,1.451
				c-2.519,5.771-6.983,3.97-11.263,2.894c-0.441-0.636-1.308-1.35-0.812-2.061c0.75-1.077,1.916-0.815,2.957-0.209l-0.014-0.004
				c1.639,0.942,3.318,0.66,5.004,0.164c0.879-0.776,1.757-1.553,2.635-2.329C382.616,440.934,383.057,440.965,383.469,441.406z"/>
			<path fill-rule="evenodd" clip-rule="evenodd" fill="#151515" d="M309.725,393.092c-0.006,1.848-0.098,3.676-2.438,3.603
				c-1.968-0.062-2.832-1.435-2.891-3.355c-0.068-2.21,1.379-2.693,3.163-3.007C310.289,389.852,309.066,392.202,309.725,393.092z"
				/>
			<path fill-rule="evenodd" clip-rule="evenodd" fill="#626262" d="M288.53,388.516c-0.248-1.792-0.587-3.577-0.716-5.378
				c-0.104-1.438-1.411-3.491,1.34-3.881c2.148-0.305,3.919,0.3,4.569,2.715c0.523,1.94,0.849,3.856-0.089,5.765
				c-0.652-0.364-0.971-0.97-1.203-1.639c-0.219-0.607-0.261-1.283-0.577-1.847c-0.269-0.479-0.359-1.467-1.051-1.182
				c-0.441,0.182-0.058,1.173-0.1,1.811c-0.012,1.236-0.098,2.445-0.839,3.498C289.458,388.792,289.013,388.837,288.53,388.516z"/>
			<path fill-rule="evenodd" clip-rule="evenodd" fill="#777777" d="M229.405,376.559c-0.948-1.616-1.895-3.232-2.842-4.849
				c-0.372-0.081-0.744-0.164-1.116-0.246c-0.105-1.752,0.622-3.051,2.13-3.927c0.967-0.18,1.893-2.44,2.909-0.056
				C228.832,370.354,229.573,373.51,229.405,376.559z"/>
			<path fill-rule="evenodd" clip-rule="evenodd" fill="#6E6E6E" d="M369.57,427.487c-0.434,1.777-2.607,2.723-2.334,4.827
				c0.166,1.268-0.797,2.873,1.816,3.179c1.85,0.216,1.783,0.784-0.355,3.2c-0.711-0.03-1.321-0.328-1.906-0.706
				c-0.801-0.527-1.59-1.065-1.957-2.019c-0.546-1.808,0.291-3.501,0.416-5.26C365.943,428.635,366.363,426.184,369.57,427.487z"/>
			<path fill-rule="evenodd" clip-rule="evenodd" fill="#2F2F2F" d="M361.438,408.555c-0.007,1.372-0.015,2.744-0.021,4.115
				c-3.289-6.661-2.042-12.814,3.078-15.195c-1.002,2.005-2.004,4.011-3.006,6.017C360.646,405.17,360.762,406.859,361.438,408.555z
				"/>
			<path fill-rule="evenodd" clip-rule="evenodd" fill="#969696" d="M366.491,370.548c-1.739-4.194-0.161-8.12,0.978-12.081
				c0.89,0.445,1.705,0.929,1.047,2.134C368.647,364.08,367.811,367.363,366.491,370.548z"/>
			<path fill-rule="evenodd" clip-rule="evenodd" fill="#333333" d="M367.517,437.456c0.394,0.412,0.787,0.825,1.181,1.237
				c0.824,2.956,3.537,3.612,5.824,4.788c-1.39,0.119-3.031,0-2.145,2.27c-1.115-0.468-2.309-0.812-3.004-1.933
				C364.717,441.751,364.283,440.262,367.517,437.456z"/>
			<path fill-rule="evenodd" clip-rule="evenodd" fill="#676767" d="M368.516,360.601c-0.349-0.712-0.697-1.423-1.047-2.134
				c0.043-3.659,0.086-7.317,0.128-10.976c2.48-0.163,0.632,2.391,1.882,2.999C369.453,353.889,370.279,357.368,368.516,360.601z"/>
			<path fill-rule="evenodd" clip-rule="evenodd" fill="#282828" d="M323.169,426.352c2.862-1.869,2.255,0.398,2.279,1.912
				c0.265,1.478,0.29,2.93-0.456,4.3c-0.613,0.812-1.355,1.357-2.447,1.152c-0.879-2.059-4.424-3.116-2.367-6.284
				c0.121-0.337,0.241-0.675,0.361-1.012C321.469,428.423,322.343,428.305,323.169,426.352z"/>
			<path fill-rule="evenodd" clip-rule="evenodd" fill="#535353" d="M271.57,384.456c-0.69,0.011-1.38,0.021-2.071,0.031
				c-3.491,0.035-5.035-2.934-7.333-4.746c-0.182-0.456-0.241-0.927-0.184-1.414c0.299-0.714,0.689-1.269,1.598-0.897
				C266.674,379.283,269.647,381.272,271.57,384.456z"/>
			<path fill-rule="evenodd" clip-rule="evenodd" fill="#252525" d="M288.53,388.516c0.311-0.001,0.619-0.03,0.924-0.086
				c0.622,0.432,0.914,1.067,1.112,1.767c0.243,0.922,0.439,1.853,0.461,2.812c-0.538,2.549-1.643,4.898-2.582,7.307
				c-0.26,0.37-0.52,0.74-0.78,1.11c-0.711,0.035-1.421,0.071-2.132,0.106c-0.163-1.775,0.52-3.395,0.938-5.062l-0.007,0.016
				c1.502-2.123,1.325-4.715,1.979-7.075C288.336,389.099,288.365,388.801,288.53,388.516z"/>
			<path fill-rule="evenodd" clip-rule="evenodd" fill="#292929" d="M269.527,390.416c1.042,1.363,2.083,2.727,3.125,4.091
				c0.318,0.524,0.216,0.947-0.306,1.269c-3.296-3.068-6.591-6.137-9.887-9.205c-0.244-0.245-0.341-0.504-0.29-0.774
				c0.051-0.277,0.113-0.416,0.185-0.416c0.41-0.225,0.847-0.286,1.306-0.213C266.186,386.277,268.2,387.963,269.527,390.416z"/>
			<path fill-rule="evenodd" clip-rule="evenodd" fill="#828282" d="M263.582,377.43c-0.361,0.354-0.722,0.706-1.083,1.06
				c-0.844,0.617-1.569,0.056-2.322-0.218c-0.738-0.279-1.459-0.348-2.123,0.197c-0.947,0.804-0.81,2.16-1.565,3.052
				c-0.992-0.354-3.019-0.539-2.223-1.759c1.209-1.853,1.926-4.835,5.128-4.528C261.041,375.392,262.589,375.93,263.582,377.43z"/>
			<path fill-rule="evenodd" clip-rule="evenodd" fill="#101010" d="M272.347,395.775c0.101-0.423,0.202-0.847,0.305-1.27
				c2.307,1.335,2.735,3.994,4.094,5.986c1.765,2.584-0.214,2.994-2.316,2.964c-0.284-0.235-0.368-0.456-0.254-0.663
				c0.11-0.2,0.217-0.3,0.321-0.3C276.129,399.502,272.421,398.22,272.347,395.775z"/>
			<path fill-rule="evenodd" clip-rule="evenodd" fill="#181818" d="M346.484,338.554c0.002-0.995,0.003-1.99,0.004-2.985
				c1.719-0.759,2.095,1.057,3.12,1.626c0.901,0.943,1.017,2.323,1.833,3.314c0.079,0.619,0.158,1.238,0.238,1.857
				c0.406,0.871-0.065,1.243-0.824,1.453c-1.729-0.297-2.669-1.661-3.79-2.787C346.545,340.284,345.96,339.547,346.484,338.554z"/>
			<path fill-rule="evenodd" clip-rule="evenodd" fill="#4E4E4E" d="M288.446,400.315c-0.139-2.821,0.993-5.311,2.039-7.823
				c0.048-0.875,0.212-1.699,0.973-2.27c0.437-0.173,0.804-0.065,1.11,0.282C292.224,394.208,291.412,397.714,288.446,400.315z"/>
			<path fill-rule="evenodd" clip-rule="evenodd" fill="#B5B5B5" d="M353.58,346.559c-0.473,3.697-2.379,6.847-3.882,10.151
				c-2.278-2.224-1.147-4.601-0.328-6.969c0.859-1.236,0.866-3.304,3.093-3.235C352.835,346.523,353.208,346.541,353.58,346.559z"/>
			<path fill-rule="evenodd" clip-rule="evenodd" fill="#404040" d="M368.533,340.492c-2.188-1.589-4.314-3.314-7.247-3.239
				C365.707,334.696,367.194,335.36,368.533,340.492z"/>
			<path fill-rule="evenodd" clip-rule="evenodd" fill="#181818" d="M340.443,337.354c-0.721,3.608-1.725,7.055-5.222,9.063
				C336.016,342.851,337.998,339.97,340.443,337.354z"/>
			<path fill-rule="evenodd" clip-rule="evenodd" fill="#535353" d="M256.488,381.521c-0.652-1.586-0.428-2.962,0.973-4.057
				c0.986,0.637,1.233,1.74,1.721,2.691c0.693,2.046,2.841,3.176,3.369,5.324c-0.03,0.363-0.061,0.728-0.091,1.091
				C259.929,385.526,257.917,383.868,256.488,381.521z"/>
			<path fill-rule="evenodd" clip-rule="evenodd" fill="#2D2D2D" d="M274.497,402.493c0.012,0.323-0.01,0.645-0.067,0.963
				c-0.972,0.08-1.943,0.161-2.914,0.243c-4.087,0.384-8.145,1.322-12.289,0.663C264.156,402.424,269.387,402.954,274.497,402.493z"
				/>
			<path fill-rule="evenodd" clip-rule="evenodd" fill="#6B6B6B" d="M248.712,356.628c-2.605,0.925-4.957,2.837-7.816,2.764
				c-0.149-0.423-0.298-0.846-0.447-1.27c2.047-0.79,4.095-1.581,6.142-2.372C247.232,356.2,248.255,355.729,248.712,356.628z"/>
			<path fill-rule="evenodd" clip-rule="evenodd" fill="#919191" d="M354.762,395.642c0.843-2.07,1.166-4.512,3.782-5.322
				c-0.987,2.735-1.976,5.472-2.964,8.208c-0.164-0.135-0.328-0.271-0.494-0.404C354.555,397.352,354.931,396.461,354.762,395.642z"
				/>
			<path fill-rule="evenodd" clip-rule="evenodd" fill="#2E2E2E" d="M371.498,415.497c-0.994,0.644-1.988,1.286-2.983,1.93
				c-1.907,0.002-3.686-0.318-4.939-1.96c0.001-0.92,0.178-1.755,1.072-2.249C365.948,416.932,369.09,415.112,371.498,415.497z"/>
			<path fill-rule="evenodd" clip-rule="evenodd" fill="#7F7F7F" d="M351.36,403.383c0.188-1.519,0.901-2.788,1.874-3.933
				c0.654-0.324,0.969-1.325,1.958-0.98l0.388,0.058c-0.166,2.436-1.615,4.221-3.051,6.012
				C351.885,404.411,351.48,404.04,351.36,403.383z"/>
			<path fill-rule="evenodd" clip-rule="evenodd" fill="#191919" d="M375.469,400.617c0.326,0.724,0.652,1.447,0.979,2.173
				c-2.281,0.071-3.826-1.854-5.956-2.196c0.333-0.693,0.666-1.387,0.999-2.08C373.352,398.204,374.037,400.115,375.469,400.617z"/>
			<path fill-rule="evenodd" clip-rule="evenodd" fill="#404040" d="M369.479,350.49c-0.627-0.999-1.254-1.999-1.882-2.999
				c-0.099-1.287-0.198-2.574-0.297-3.861c0.454-0.791,0.908-1.581,1.362-2.372C370.417,344.204,369.625,347.376,369.479,350.49z"/>
			<path fill-rule="evenodd" clip-rule="evenodd" fill="#181818" d="M302.498,412.501c-2.661-2.056-5.321-4.112-6.875-7.222
				C298.812,406.831,301.18,409.167,302.498,412.501z"/>
			<path fill-rule="evenodd" clip-rule="evenodd" fill="#2D2D2D" d="M310.58,408.493c2.364,2.213-0.355,5.645,1.891,7.886
				c0.25,0.234,0.338,0.473,0.264,0.716c-0.074,0.245-0.152,0.368-0.232,0.368c-0.332,0.681-0.665,1.36-0.997,2.041
				c-2.075,0.019-1.317-1.381-1.226-2.448C310.379,414.202,310.479,411.348,310.58,408.493z"/>
			<path fill-rule="evenodd" clip-rule="evenodd" fill="#585858" d="M362.412,423.596c0.419,0.942,0.838,1.885,1.258,2.826
				c0.682,1.085,0.771,2.166-0.014,3.244c-0.854,0.47-1.653,0.455-2.369-0.276c0.012-1.262,0.023-2.523,0.035-3.785
				C361.006,424.566,360.656,423.511,362.412,423.596z"/>
			<path fill-rule="evenodd" clip-rule="evenodd" fill="#3E3E3E" d="M267.508,365.453c1.022,2.317,3.308,3.383,4.996,5.041
				c-1.022,0.731-2.078,0.589-3.145,0.117c-1.458-1.4-2.494-3.06-3.052-5.009C266.648,365.085,267.049,365.035,267.508,365.453z"/>
			<path fill-rule="evenodd" clip-rule="evenodd" fill="#A8A8A8" d="M362.412,423.596c-0.363,0.67-0.727,1.34-1.09,2.009
				c-0.797-1.516-1.594-3.032-2.539-4.833C361.635,420.241,362.314,421.576,362.412,423.596z"/>
			<path fill-rule="evenodd" clip-rule="evenodd" fill="#161616" d="M355.334,434.023c-2.33,0.719-2.379,0.729-2.771-1.201
				c-0.38-1.865-0.645-3.754-0.961-5.632c2.234,0.509,1.906,2.383,2.02,3.943C353.716,432.434,353.364,433.882,355.334,434.023z"/>
			<path fill-rule="evenodd" clip-rule="evenodd" fill="#A6A6A6" d="M361.417,382.479c0.085-2.22,0.864-4.207,2.033-6.064
				c0.448,0.217,0.742,0.564,0.884,1.042c-0.325,1.787-0.54,3.614-1.851,5.039C362.123,382.832,361.768,382.843,361.417,382.479z"/>
			<path fill-rule="evenodd" clip-rule="evenodd" fill="#4E4E4E" d="M286.472,396.47c0.365,1.813-0.058,3.48-0.938,5.062
				c-1.056,0.322-2.109,1.074-3.178,0.028c0.043-0.346,0.087-0.692,0.131-1.039C285.827,401.149,284.704,397.388,286.472,396.47z"/>
			<path fill-rule="evenodd" clip-rule="evenodd" fill="#1A1A1A" d="M260.97,356.354c-1.808,0.498-3.973-0.617-5.488,1.212
				c-0.647-0.086-1.294-0.172-1.941-0.259c-0.706-0.371-1.59-0.638-1.016-1.752C255.359,355.614,258.27,354.876,260.97,356.354z"/>
			<path fill-rule="evenodd" clip-rule="evenodd" fill="#232323" d="M295.71,405.301c-2.66-0.33-5.343-0.604-7.137-2.995
				C291.428,402.17,293.792,403.206,295.71,405.301z"/>
			<path fill-rule="evenodd" clip-rule="evenodd" fill="#424242" d="M351.36,403.383c0.39,0.386,0.779,0.771,1.169,1.156
				c-0.637,1.019-1.274,2.037-1.912,3.055c-0.214-0.013-0.428-0.025-0.644-0.035c-0.877-0.202-1.651-0.544-1.989-1.473
				c-0.109-0.683,0.012-1.286,0.604-1.724C349.826,404.923,350.598,404.166,351.36,403.383z"/>
			<path fill-rule="evenodd" clip-rule="evenodd" fill="#747474" d="M352.463,346.506c-0.6,0.961-1.197,1.922-1.795,2.883
				c-1.86-1.93-1.777-3.902-0.136-5.911c0.382-0.37,0.765-0.741,1.147-1.111C352.705,343.602,352.436,345.082,352.463,346.506z"/>
			<path fill-rule="evenodd" clip-rule="evenodd" fill="#424242" d="M350.403,417.517c-1.671-1.424-0.491-3.411-1.002-5.065
				c-0.813-1.878-1.9-3.797,0.778-5.147c0.146,0.096,0.293,0.192,0.438,0.29C350.547,410.901,350.475,414.209,350.403,417.517z"/>
			<path fill-rule="evenodd" clip-rule="evenodd" fill="#1A1A1A" d="M267.508,365.453c-0.4,0.05-0.801,0.1-1.202,0.149
				c-1.713-1.658-3.426-3.316-5.139-4.974C264.481,360.659,265.768,363.354,267.508,365.453z"/>
			<path fill-rule="evenodd" clip-rule="evenodd" fill="#1C1C1C" d="M364.647,413.218c-0.357,0.75-0.715,1.499-1.072,2.249
				c-0.894-0.271-1.171-1.039-1.452-1.804c2.636-1.345,0.228-4.622,2.359-6.16C364.537,409.408,364.593,411.313,364.647,413.218z"/>
			<path fill-rule="evenodd" clip-rule="evenodd" fill="#A5A5A5" d="M361.417,382.479c0.355,0.006,0.711,0.011,1.066,0.017
				c-0.382,1.745-0.745,3.498-1.896,4.948C358.926,385.466,360.053,383.953,361.417,382.479z"/>
			<path fill-rule="evenodd" clip-rule="evenodd" fill="#A7A7A7" d="M233.462,362.434c0.765-1.115,1.544-2.24,3.166-1.713
				c0.222,0.072,0.531,0.589,0.459,0.744c-0.691,1.506-2.149,1.813-3.57,2.16C233.012,363.25,232.993,362.854,233.462,362.434z"/>
			<path fill-rule="evenodd" clip-rule="evenodd" fill="#F6F6F6" d="M376.756,375.732c0.729-0.079,1.299,0.157,1.473,0.912
				c0.23,1-0.288,1.6-1.236,1.648c-0.688,0.035-1.256-0.406-1.283-1.177C375.686,376.421,375.963,375.854,376.756,375.732z"/>
			<path fill-rule="evenodd" clip-rule="evenodd" fill="#1B1B1B" d="M349.243,337.519c-0.919-0.65-1.837-1.301-2.755-1.95
				c-1.09-0.058-2.18-0.115-3.27-0.173c2.486-1.663,4.587-1.387,6.22,1.238c0.319,0.276,0.397,0.5,0.233,0.67
				C349.534,337.446,349.393,337.519,349.243,337.519z"/>
			<path fill-rule="evenodd" clip-rule="evenodd" fill="#202020" d="M361.379,337.302c-0.925,2.174-2.333,3.796-4.802,4.208
				C357.719,339.583,359.305,338.163,361.379,337.302z"/>
			<path fill-rule="evenodd" clip-rule="evenodd" fill="#545454" d="M252.525,355.555c0.339,0.584,0.677,1.168,1.016,1.752
				c-1.609-0.226-3.219-0.452-4.829-0.679c-0.707-0.292-1.414-0.585-2.121-0.878C248.558,355.344,250.526,354.976,252.525,355.555z"
				/>
			<path fill-rule="evenodd" clip-rule="evenodd" fill="#2F2F2F" d="M371.521,398.484c-2.043-0.306-4.379,0.927-6.082-1.161
				C367.687,396.559,369.686,397.1,371.521,398.484z"/>
			<path fill-rule="evenodd" clip-rule="evenodd" fill="#C7C7C7" d="M363.307,429.562c0.121-1.047,0.242-2.093,0.363-3.14
				c0.601,0.021,1.201,0.041,1.802,0.062c0.335,0.305,0.552,0.676,0.63,1.125c-0.025,0.449-0.139,0.876-0.322,1.286
				c-0.517,1.227-0.031,2.781-1.24,3.782c-0.834,0.118-1.305-0.279-1.504-1.061C362.978,430.911,362.909,430.205,363.307,429.562z"
				/>
			<path fill-rule="evenodd" clip-rule="evenodd" fill="#454545" d="M365.316,428.399c0.062-0.304,0.169-0.592,0.318-0.864
				c0.869-1.605,2.042-2.063,3.627-0.955c0.103,0.303,0.205,0.605,0.309,0.907c-2.599-0.062-3.053,1.669-3.119,3.727
				C363.902,431.151,365.395,429.459,365.316,428.399z"/>
			<path fill-rule="evenodd" clip-rule="evenodd" fill="#F5F5F5" d="M315.08,392.68c-0.398,0.644-0.975,0.855-1.639,0.535
				c-0.645-0.312-0.969-0.9-0.695-1.601c0.271-0.7,0.834-0.986,1.526-0.531C314.822,391.444,315.29,391.908,315.08,392.68z"/>
			<path fill-rule="evenodd" clip-rule="evenodd" fill="#4E4E4E" d="M288.444,389.41c0.228,2.606,0.389,5.194-1.979,7.075
				C286.817,394.041,287.259,391.621,288.444,389.41z"/>
			<path fill-rule="evenodd" clip-rule="evenodd" fill="#B5B5B5" d="M233.462,362.434c0.019,0.396,0.037,0.793,0.056,1.19
				c-1.075,0.98-0.585,2.9-2.153,3.583c-0.406-0.779-1.234-1.101-1.825-1.679C230.848,364.496,232.155,363.465,233.462,362.434z"/>
			<path fill-rule="evenodd" clip-rule="evenodd" fill="#858585" d="M364.442,373.429c0.331-1.248-0.093-3.031,2.098-2.964
				c-0.403,1.318-0.807,2.637-1.21,3.955C364.479,374.586,363.931,374.481,364.442,373.429z"/>
			<path fill-rule="evenodd" clip-rule="evenodd" fill="#292929" d="M383.469,441.406c-0.441-0.031-0.882-0.062-1.322-0.094
				c0.823-2.225,0.404-4.536,0.477-6.813C384.414,436.616,383.229,439.099,383.469,441.406z"/>
			<path fill-rule="evenodd" clip-rule="evenodd" fill="#454545" d="M310.279,417.056c0.23,0.905,0.23,1.926,1.226,2.448
				c-0.118,2.555-1.139,2.706-2.832,1.062C309.208,419.396,309.743,418.227,310.279,417.056z"/>
			<path fill-rule="evenodd" clip-rule="evenodd" fill="#212121" d="M250.473,404.53c0.764-0.053,1.529-0.105,2.293-0.159
				c1.578,0.038,3.155,0.076,4.732,0.114c-1.748,1.807-3.981,0.781-5.997,1.029C251.159,405.187,250.816,404.858,250.473,404.53z"/>
			<path fill-rule="evenodd" clip-rule="evenodd" fill="#090909" d="M327.431,408.65c-0.304-0.095-0.615-0.145-0.934-0.149
				c-0.044-1.582-0.089-3.164-0.133-4.746c0.128-0.705,0.257-1.41,0.386-2.114C330.059,403.678,329.049,406.135,327.431,408.65z"/>
			<path fill-rule="evenodd" clip-rule="evenodd" fill="#2D2D2D" d="M311.441,402.508c-1.545-0.889-2.811-1.038-3.176,1.199
				c-1.743-1.3-1.493-2.521,0.381-3.233C310.338,399.829,311.621,400.305,311.441,402.508z"/>
			<path fill-rule="evenodd" clip-rule="evenodd" fill="#3F3F3F" d="M349.243,337.519c0.032-0.302,0.097-0.598,0.195-0.885
				c1.694,0.761,2.227,2.123,2.003,3.875C350.105,339.956,349.614,338.781,349.243,337.519z"/>
			<path fill-rule="evenodd" clip-rule="evenodd" fill="#8D8D8D" d="M229.54,365.528c1.137-0.015,1.892,0.386,1.825,1.68
				c-0.269,0.169-0.561,0.261-0.878,0.273c-0.993-1.157-1.933,0.389-2.909,0.056C228.231,366.867,228.886,366.198,229.54,365.528z"
				/>
			<path fill-rule="evenodd" clip-rule="evenodd" fill="#747474" d="M269.358,370.611c1.048-0.039,2.097-0.078,3.145-0.117
				c0.679,0.329,1.357,0.657,2.037,0.986c-0.031,0.364-0.062,0.729-0.093,1.094C272.646,372.191,270.731,372.103,269.358,370.611z"
				/>
			<path fill-rule="evenodd" clip-rule="evenodd" fill="#4A4A4A" d="M292.568,390.505c-0.341,0.001-0.681,0.001-1.022,0.002
				c-1.226-2.293-0.684-4.021,1.656-5.172c0.144,0.801,0.288,1.601,0.432,2.401C293.279,388.659,292.923,389.582,292.568,390.505z"
				/>
			<path fill-rule="evenodd" clip-rule="evenodd" fill="#A0A0A0" d="M364.442,373.429c0.296,0.33,0.592,0.66,0.888,0.991
				c-0.332,1.012-0.664,2.024-0.996,3.037c-0.295-0.348-0.59-0.694-0.884-1.042C363.43,375.303,363.281,374.148,364.442,373.429z"/>
			<path fill-rule="evenodd" clip-rule="evenodd" fill="#212121" d="M313.513,409.487c-0.011-0.964-0.021-1.928-0.03-2.893
				c1.564,0.85,1.69,2.397,1.897,3.905C314.758,410.163,314.135,409.825,313.513,409.487z"/>
			<path fill-rule="evenodd" clip-rule="evenodd" fill="#2D2D2D" d="M308.256,403.694c2.352,0.521,2.592,2.116,2.082,4.094
				C309.645,406.423,308.949,405.059,308.256,403.694z"/>
			<path fill-rule="evenodd" clip-rule="evenodd" fill="#6E6E6E" d="M369.262,426.58c-1.334-0.154-2.528,0.219-3.627,0.955
				c-0.055-0.351-0.109-0.701-0.163-1.052C366.768,425.216,368.045,424.711,369.262,426.58z"/>
			<path fill-rule="evenodd" clip-rule="evenodd" fill="#323232" d="M363.307,429.562c0.064,0.646,0.128,1.293,0.191,1.94
				c-0.217,0.408-0.514,0.479-0.89,0.21c-0.652-1.215-1.642-0.229-2.458-0.376c0.379-0.649,0.758-1.298,1.137-1.946
				C361.961,429.447,362.634,429.504,363.307,429.562z"/>
			<path fill-rule="evenodd" clip-rule="evenodd" fill="#333333" d="M379.512,443.642c-1.719,1.489-3.383,1.336-5.004-0.164
				C376.176,443.532,377.844,443.587,379.512,443.642z"/>
			<path fill-rule="evenodd" clip-rule="evenodd" fill="#FDFDFD" d="M255.483,421.506c0.769-0.373,0.972-1.048,0.972-1.829
				c2.581-0.788,3.126,1.288,3.481,2.869c0.629,2.799-1.791,3.877-3.564,5.235c-1.502,0.938-3.093,1.776-4.006,3.403
				c-0.439,1.146-0.441,1.992,1.161,1.481c2.537-0.808,3.74-2.987,5.035-5.068c4.339-1.896,6.245-1.32,8.593,2.338
				c3.148,4.903,2.967,10.262,2.372,15.704c-0.185,0.992-0.562,1.937-0.773,2.924c-0.161,0.711-0.415,1.39-0.784,2.021
				c-1.316,1.352-2.122,3.102-3.43,4.469c-1.08,0.626-2.143,1.29-3.418,1.457c-3.139,0.452-6.24,0.661-8.99-1.394
				c-0.474-0.212-0.93-0.458-1.381-0.716c-5.115-2.926-5.563-8.441-7.347-13.224c-0.312-2.35-0.307-4.701-0.043-7.054
				c0.524-2.575,1.832-4.654,3.962-6.202c2.306-1.346,3.931-3.538,6.135-5.015C254.166,422.492,254.944,422.174,255.483,421.506z"/>
			<path fill-rule="evenodd" clip-rule="evenodd" fill="#070707" d="M327.431,408.65c-0.194-2.341,0.789-4.797-0.682-7.012
				c-0.791-5.207,1.052-10.203,2.032-15.09c1.162-5.787-1.652-11.503,0.707-17.048c0.029-0.651,0.06-1.302,0.09-1.953
				c3.029-1.544,2.436-5.111,4.128-7.406c0.274-0.411,0.636-0.713,1.097-0.897c0.877,0.074,1.175,0.751,1.486,1.419
				c0.555,3.116-1.59,5.625-1.904,8.548c-0.589,1.652-0.67,3.401-0.951,5.118c-0.074,0.526-0.207,1.032-0.367,1.534
				c0.299,10.411-1.199,20.744-1.197,31.136c0,1.675,0.553,3.258,0.823,4.887c0.122,0.792,0.161,1.591,0.167,2.39
				c0.013,2.242-0.26,4.505,0.391,6.711c0.507,2.241,0.805,4.545,1.895,6.621c0.324,0.577,0.62,1.169,0.855,1.789
				c0.438,1.256-0.156,2.545,0.131,3.809c1.313,1.797,0.632,4.459,2.628,5.957c0.286,0.398,0.491,0.829,0.649,1.29
				c0.425,1.741,0.412,3.45-0.354,5.104c0.29,1.589-0.931,3.404,0.718,4.79l0.013-0.125c0.224,0.666,0.683,1.206,0.989,1.828
				c0.385,0.906,0.74,1.828,1.222,2.688c2.618,4.676,3.919,4.998,8.317,2.085c3.414,0.188,2.934,2.236,2.127,4.44
				c-1.436,2.246-3.461,2.83-5.949,2.106c-3.902-0.271-5.753-3.468-8.23-5.771c-1.162-0.639-0.893-1.746-0.904-2.762
				c-0.289-2.851-2.973-4.446-3.713-7.056c-0.537-0.674-1.113-1.317-1.593-2.034c-0.515-0.858-0.788-1.876-1.651-2.505
				c-1.492-0.815-3.264-0.423-4.778-1.109c-2.167-1.406-2.696,3.184-4.969,1.364c-0.083-0.576-0.166-1.152-0.249-1.729
				c-0.737-1.381,0.201-3.616-2.132-4.184c-2.032,0.323-2.843-2.081-4.715-2.112c-1.335-0.479-2.362-1.297-2.93-2.629
				c-1.051-2.184-2.378-4.178-4.099-5.902c-0.166-0.159-0.327-0.316-0.492-0.476c-0.197-0.427-0.298-0.873-0.313-1.342
				c0.199-0.936,0.37-1.903,1.717-1.615c1.832,2.447,3.601,4.95,6.041,6.862c1.068,0.839,2.02,1.824,3.163,2.561
				c1.019,0.117,2.041,0.254,3.079,0.236c1.83-0.352,2.578,1.261,3.779,2.062c2.284,2.429,5.188,1.557,7.256,0.383
				c1.889-1.072,0.395-3.712,0.048-5.503c-0.291-1.505-0.431-3.214-1.377-4.588l0.022,0.039c-2.201-2.267-1.549-5.039-1.477-7.757
				c0.047-1.748,0.404-3.556-0.354-5.264C327.558,411.244,327.494,409.947,327.431,408.65z"/>
			<path fill-rule="evenodd" clip-rule="evenodd" fill="#060606" d="M244.21,463.661c-12.175-2.542-17.951-9.072-17.754-20.075
				c-0.874-4.872-0.791-9.684,0.896-14.397c0.546-1.526,1.38-2.99,1.053-4.713c1.027-3.594,3.655-5.119,7.146-5.531
				c-4.773,9.425-7.105,19.261-2.183,29.158c3.045,6.122,7.805,11.22,14.079,14.532C247.002,464.98,245.41,463.702,244.21,463.661z"
				/>
			<path fill-rule="evenodd" clip-rule="evenodd" fill="#2C2C2C" d="M255.236,427.386c2.553-2.23,6.917-4.174,1.22-7.709
				c-3.642-4.377-7.487-8.288-13.992-6.108c-0.502-0.704-0.264-1.108,0.523-1.29c0.903-0.038,1.214-1.078,2.056-1.223
				c1.199-0.054,2.436-0.451,3.555,0.343c5.535,1.492,8.306,6.692,12.806,9.582c0.666,0.427,1.13,1.3,0.658,2.162
				c-2.04,3.719,1.389,1.831,2.424,2.392c0.337,0.322,0.675,0.645,1.012,0.968c5.375,4.025,7.763,11.643,5.434,17.582
				c-0.491,1.252-0.716,3.095-2.912,2.314c1.427-5.618,1.041-10.961-1.966-16.094c-1.979-3.379-4.178-4.477-7.423-1.708
				c-0.37,0.294-0.792,0.406-1.261,0.365C256.461,428.704,255.659,428.301,255.236,427.386z"/>
			<path fill-rule="evenodd" clip-rule="evenodd" fill="#7F7F7F" d="M272.687,426.242c1.976-3.003,4.335-2.163,6.759-0.675
				c-4.099-0.449-2.94,1.493-1.588,3.505c4.344,6.464,4.512,12.886-0.065,19.342c-1.368,1.93-2.845,3.605-5.271,4.129
				c-0.332-0.347-0.515-0.759-0.553-1.238c0.096-0.989,0.628-1.738,1.311-2.406c0.325-0.322,0.68-0.613,1.048-0.883
				c3.824-4.122,3.153-9.047,2.485-13.963c-0.498-2.094-1.155-4.11-2.723-5.695C273.416,427.788,272.855,427.145,272.687,426.242z"
				/>
			<path fill-rule="evenodd" clip-rule="evenodd" fill="#0B0B0B" d="M373.513,454.5c-1.543,6.883-4.519,8.016-9.952,3.787
				c-0.757-0.772-0.674-1.683-0.431-2.615c0.312-0.344,0.7-0.542,1.167-0.571c1.758,0.395,3.476,1.662,5.32,0.25
				C370.822,454.645,371.584,451.837,373.513,454.5z"/>
			<path fill-rule="evenodd" clip-rule="evenodd" fill="#252525" d="M376.126,402.7c1.45,0.244,2.901,0.488,4.353,0.731
				c1.289-0.551,2.25-0.545,2.137,1.269c0.248,0.925,0.495,1.851,0.742,2.776c-0.254,0.43-0.374,0.896-0.373,1.392
				c0.004,1.236-0.324,2.433-1.645,2.666c-1.631,0.288-1.6-1.24-1.939-2.257c-0.208-0.621-0.467-1.218-0.724-1.817
				C377.457,406.071,375.96,404.831,376.126,402.7z"/>
			<path fill-rule="evenodd" clip-rule="evenodd" fill="#ECECEC" d="M311.394,432.779c0.721,0.897,1.441,1.796,2.162,2.694
				c-2.187,0.5,1.317,4.592-1.953,3.688c-2.735-0.755-5.282-2.894-4.097-6.675c0.812-0.74,1.742-1.021,2.82-0.73
				C310.822,431.949,311.178,432.291,311.394,432.779z"/>
			<path fill-rule="evenodd" clip-rule="evenodd" fill="#242424" d="M241.413,449.534c-2.427-2.824-3.318-6.355-4.473-9.76
				c-1.018-2.999-0.328-5.51,2.3-7.397c0.454-0.344,0.909-0.346,1.366-0.006c-1.943,6.03,0.777,11.494,2.083,17.134
				C242.273,449.969,241.848,449.978,241.413,449.534z"/>
			<path fill-rule="evenodd" clip-rule="evenodd" fill="#303030" d="M331.644,442.454c1.021,0.831,0.764,2.009,0.84,3.096
				c-0.668,2.052-4.674-0.55-4.231,3.049c0.003,0.704-0.195,1.316-0.736,1.787c-2.438-0.837-4.319-2.266-5.141-4.824
				c0.433-1.048,1.193-1.808,2.122-2.422C326.828,442.397,329.25,442.572,331.644,442.454z"/>
			<path fill-rule="evenodd" clip-rule="evenodd" fill="#424242" d="M382.615,404.7c-0.427-0.904-1.236-1.162-2.137-1.268
				c2.859-2.236,2.834-6.745,6.664-8.286c2.068-0.831,1.887-0.008,1.355,1.406C385.855,398.776,384.629,402.022,382.615,404.7z"/>
			<path fill-rule="evenodd" clip-rule="evenodd" fill="#232323" d="M287.796,410.376c-2.596-0.756-2.842-2.694-1.729-4.566
				c1.304-2.194,2.991-1.043,4.512,0.118c1.013,0.773,2.397,1.09,2.921,2.446C291.801,409.62,288.188,405.41,287.796,410.376z"/>
			<path fill-rule="evenodd" clip-rule="evenodd" fill="#242424" d="M248.491,428.24c-1.308,1.758-2.617,3.515-3.925,5.272
				c-0.374,0.339-0.788,0.415-1.25,0.191c-0.737-0.653-1.136-1.481-1.27-2.446c0.107-1.735,1.388-2.812,2.308-4.094
				c0.765-0.553,1.53-1.105,2.296-1.659C249.772,424.728,249.22,426.425,248.491,428.24z"/>
			<path fill-rule="evenodd" clip-rule="evenodd" fill="#363636" d="M339.529,452.551c0.086-0.776,0.17-1.553,0.255-2.329
				c3.308-0.627,5.995,0.934,8.693,2.459c0.313,1.304,0.069,2.396-1.183,3.103C344.413,455.415,342.086,453.708,339.529,452.551z"/>
			<path fill-rule="evenodd" clip-rule="evenodd" fill="#272727" d="M248.491,428.24c0.033-1.347-0.021-2.636-1.841-2.735
				c1.631-0.95,2.556-2.984,4.739-3.089c1.139-0.15,2.618-1.435,3.008,0.904C252.428,424.96,250.459,426.601,248.491,428.24z"/>
			<path fill-rule="evenodd" clip-rule="evenodd" fill="#8A8A8A" d="M306.356,427.601c-2.572,0.277-5.17,0.69-7.546-1.362
				c0.939-2.374,6.164-0.426,4.728-4.768c0.416-0.287,0.831-0.273,1.247-0.001c0.276,0.376,0.486,0.785,0.629,1.229
				c0.203,1.33-0.133,2.798,0.995,3.894l0.082-0.089c0.305,0.285,0.386,0.542,0.246,0.772
				C306.604,427.492,306.478,427.601,306.356,427.601z"/>
			<path fill-rule="evenodd" clip-rule="evenodd" fill="#606060" d="M252.409,453.787c2.585,2.829,5.987,1.664,9.11,1.862
				c0.601,0.689,0.566,1.396,0.059,2.116c-3.058,0.68-6.108,1.093-9.111-0.245c0.614-0.593,1.391-0.489,2.138-0.503
				c1.427-0.07,2.864,0.127,4.289-0.106c0.661-0.105,0.093-0.634-0.043-0.517c-1.367,1.175-3.067,0.354-4.625,0.583
				C251.998,456.833,251.338,455.801,252.409,453.787z"/>
			<path fill-rule="evenodd" clip-rule="evenodd" fill="#1B1B1B" d="M334.2,446.643c1.53,2.548,3.421,4.956,3.155,8.195
				c-0.965-3.906-4.895-1.533-6.893-3.253c-0.59-1.79,2.086-1.027,1.93-2.483C332.976,448.265,333.436,447.341,334.2,446.643z"/>
			<path fill-rule="evenodd" clip-rule="evenodd" fill="#070707" d="M235.499,419.047c-2.001-0.86-1.144-1.889-0.135-2.86
				c2.008-1.936,4.172-3.513,7.217-2.729C241.094,416.428,237.471,416.691,235.499,419.047z"/>
			<path fill-rule="evenodd" clip-rule="evenodd" fill="#4C4C4C" d="M346.5,445.543c-2.027,0.035-4.075,0.689-6.076-0.185
				c-1.105-0.721-1.737-1.503-0.328-2.552c3.03-0.984,6.084-0.846,9.15-0.186c1.122,0.8,2.407,1.641-0.061,2.312
				C348.305,445.173,347.26,444.725,346.5,445.543z"/>
			<path fill-rule="evenodd" clip-rule="evenodd" fill="#303030" d="M347.504,455.416c0.324-0.912,0.648-1.823,0.974-2.735
				c0.654-0.229,0.917,0.148,1.075,0.691c1.139,0.914,2.132,1.977,3.104,3.062c1.209,1.667,1.334,3.286-0.217,4.83
				c-0.045-1.977,0.133-4.126-2.924-3.759C348.371,457.266,347.675,456.593,347.504,455.416z"/>
			<path fill-rule="evenodd" clip-rule="evenodd" fill="#505050" d="M367.517,437.456c-2.982,3.171,0.328,4.507,1.856,6.362
				c-3.564-1.127-1.107,1.831-1.799,2.652c-1.932,0.676-2.351-1.636-3.801-1.916c-0.713-0.487-1.597-0.845-1.523-1.946
				c1.408-1.397,2.17-3.12,2.518-5.053c0.209-0.41,0.524-0.708,0.941-0.897C366.48,436.542,367.117,436.731,367.517,437.456z"/>
			<path fill-rule="evenodd" clip-rule="evenodd" fill="#0A0A0A" d="M324.598,443.372c-0.109,1.37-0.771,2.18-2.223,2.189
				c-0.766-0.527-1.68-0.933-1.724-2.063c1.788-0.024,1.603-1.706,2.306-2.667c1.027-1.403,2.049-1.607,2.542,0.469
				C325.559,442.146,325.291,442.853,324.598,443.372z"/>
			<path fill-rule="evenodd" clip-rule="evenodd" fill="#282828" d="M373.513,454.5c-2.423-1.538-1.695,1.893-3.099,1.964
				c-1.381-2.285-2.609-4.636-3.189-7.273c0.079-0.211,0.161-0.421,0.243-0.632C371.506,448.479,371.623,452.393,373.513,454.5z"/>
			<path fill-rule="evenodd" clip-rule="evenodd" fill="#6B6B6B" d="M346.5,445.543c0.129-1.822,3.025,0.073,2.866-2.135
				c-0.044-1.273,0.833-1.465,1.808-1.544c1.696,0.81,3.537-0.254,5.247,0.393c0.671,0.094,1.341,0.188,2.012,0.282
				c0.368,0.119,0.513,0.278,0.434,0.479c-0.087,0.22-0.183,0.329-0.288,0.329C354.344,442.936,350.787,446.246,346.5,445.543z"/>
			<path fill-rule="evenodd" clip-rule="evenodd" fill="#3B3B3B" d="M361.406,451.503c-0.702-2.443,1.222-4.531,0.939-6.918
				c0.422-0.443,0.889-0.497,1.402-0.162c0.965,1.008,1.331,2.296,1.701,3.586c0.391,2.094,0.621,4.181-0.438,6.167
				c-2.092,1.304-2.344-0.55-2.209-1.645C363.006,450.886,362.359,451.177,361.406,451.503z"/>
			<path fill-rule="evenodd" clip-rule="evenodd" fill="#5D5D5D" d="M378.677,407.46c1.622,0.53,1.608,2.229,2.188,3.399
				c2.072-0.4,1.188-2.642,2.492-3.383c0.427,2.304,0.168,4.886-2.471,4.939C377.558,412.483,379.402,409.169,378.677,407.46z"/>
			<path fill-rule="evenodd" clip-rule="evenodd" fill="#292929" d="M241.413,449.534c0.392-0.03,0.784-0.061,1.176-0.091
				c3.826-0.386,5.353,2.501,7.145,5.015c0.086,0.502-0.061,0.927-0.436,1.272C245.884,454.665,243.906,451.771,241.413,449.534z"/>
			<path fill-rule="evenodd" clip-rule="evenodd" fill="#1B1B1B" d="M338.26,457.6c2.744,1.924,5.486,3.847,8.23,5.771
				C341.907,464.07,339.939,461.04,338.26,457.6z"/>
			<path fill-rule="evenodd" clip-rule="evenodd" fill="#606060" d="M272.317,451.296c0.067,0.416,0.135,0.831,0.203,1.247
				c-1.866,2.163-4.199,3.483-7.031,3.907c-0.323-0.341-0.433-0.735-0.301-1.192c0.525-1.012,1.334-1.755,2.264-2.384
				C269,452.128,270.41,450.938,272.317,451.296z"/>
			<path fill-rule="evenodd" clip-rule="evenodd" fill="#030303" d="M364.582,447.552c-1.197-0.704-0.981-1.941-1.146-3.035
				c0.252-0.416,0.611-0.693,1.077-0.832c2.467-0.66,1.383,2.579,3.061,2.786c-0.036,0.696-0.072,1.392-0.107,2.088
				c0.001,0,0.058-0.109,0.058-0.109C366.189,449.31,365.435,448.272,364.582,447.552z"/>
			<path fill-rule="evenodd" clip-rule="evenodd" fill="#171717" d="M332.496,449.646c1.785,3.228-2.277,0.326-2.033,1.939
				c-1.256,0.273-2.089-0.496-2.947-1.199c-0.004-0.637-0.008-1.273-0.012-1.909C329.585,447.084,331.188,447.731,332.496,449.646z"
				/>
			<path fill-rule="evenodd" clip-rule="evenodd" fill="#2E2E2E" d="M381.743,417.406c-2.958-1.255-6.446-0.011-9.255-1.964
				C375.823,414.917,379.206,414.167,381.743,417.406z"/>
			<path fill-rule="evenodd" clip-rule="evenodd" fill="#282828" d="M361.406,451.503c0.592-0.7,1.182-1.4,1.803-2.135
				c0.697,1.702-0.347,3.692,1.092,5.154c0.269,0.204,0.369,0.42,0.301,0.648c-0.07,0.233-0.146,0.351-0.23,0.351
				c-0.305,0.001-0.609-0.009-0.913-0.028c-1.134,0.63-1.388-0.414-1.887-0.993C361.059,453.526,361.027,452.526,361.406,451.503z"
				/>
			<path fill-rule="evenodd" clip-rule="evenodd" fill="#161616" d="M364.514,443.685c-0.359,0.277-0.717,0.555-1.076,0.832
				c-0.365,0.022-0.729,0.046-1.092,0.068c-1.256-0.413-2.512-0.825-3.768-1.238c0.016-0.28-0.033-0.55-0.145-0.809
				c0.354-0.354,0.71-0.71,1.065-1.065c1.349-0.852,2.513-1.029,3.116,0.85C362.887,443.279,363.709,443.469,364.514,443.685z"/>
			<path fill-rule="evenodd" clip-rule="evenodd" fill="#393939" d="M244.354,427.164c-0.622,1.439-1.244,2.879-1.866,4.318
				c-0.462,0.759-1.155,1.049-2.019,0.991c-0.41-0.032-0.82-0.064-1.23-0.097C240.5,430.203,242.249,428.51,244.354,427.164z"/>
			<path fill-rule="evenodd" clip-rule="evenodd" fill="#0A0A0A" d="M306.356,427.601c0.045-0.366,0.089-0.731,0.134-1.098
				c2.146,1.692,4.781,3.003,4.903,6.276c-0.286-0.104-0.574-0.203-0.864-0.296c-1.291-0.774-2.543-1.582-2.857-3.222
				C307.234,428.708,306.795,428.154,306.356,427.601z"/>
			<path fill-rule="evenodd" clip-rule="evenodd" fill="#292929" d="M254.533,457.215c-0.688,0.102-1.377,0.204-2.065,0.306
				c-1.246-0.262-2.402-0.683-3.169-1.79c0.143-0.177,0.284-0.355,0.422-0.535c0.392-0.745,1.122-1.117,1.758-1.592
				c0.31,0.062,0.62,0.122,0.93,0.184c-0.035,1.511,0.453,2.641,2.119,2.915C254.53,456.873,254.531,457.044,254.533,457.215z"/>
			<path fill-rule="evenodd" clip-rule="evenodd" fill="#090909" d="M339.5,443.499c0.308,0.62,0.615,1.24,0.924,1.859
				c-0.282,0.109-0.575,0.163-0.879,0.162c-0.395,0.548-0.747,0.521-1.058-0.077c0.009-1.988,0.017-3.977,0.025-5.965
				c0.507-0.499,1.101-0.575,1.755-0.366c0.359,0.253,0.584,0.593,0.654,1.031c-0.008,0.638-0.168,1.246-0.371,1.846
				C340.35,442.596,339.955,443.068,339.5,443.499z"/>
			<path fill-rule="evenodd" clip-rule="evenodd" fill="#4D4D4D" d="M265.459,455.447c0.01,0.335,0.02,0.669,0.03,1.003
				c-1.325,0.374-2.363,1.603-3.911,1.315c-0.02-0.705-0.04-1.411-0.059-2.116c0.765-0.908,1.766-1.264,2.925-1.247
				C265.011,454.529,265.343,454.884,265.459,455.447z"/>
			<path fill-rule="evenodd" clip-rule="evenodd" fill="#2C2C2C" d="M244.21,463.661c1.06-0.402,2.415,0.128,3.236-1.026
				c0.998-0.592,1.56,0.219,2.226,0.692c-0.654,1.604-2.208,0.954-3.349,1.337C245.619,464.329,244.915,463.995,244.21,463.661z"/>
			<path fill-rule="evenodd" clip-rule="evenodd" fill="#2E2E2E" d="M304.395,421.645c-0.286-0.058-0.571-0.115-0.857-0.174
				c-0.507-1.71-2.015-3.038-1.903-4.984c0.94,1.011,1.88,2.021,2.821,3.032C305.103,420.246,305.084,420.955,304.395,421.645z"/>
			<path fill-rule="evenodd" clip-rule="evenodd" fill="#BEBEBE" d="M307.672,429.262c1.416,0.662,2.195,1.891,2.857,3.222
				c-1.008,0.002-2.016,0.003-3.023,0.005C307.562,431.412,307.617,430.337,307.672,429.262z"/>
			<path fill-rule="evenodd" clip-rule="evenodd" fill="#0A0A0A" d="M318.271,437.586c3.066,0.193,2.03,2.479,2.132,4.184
				C319.312,440.568,319.861,438.531,318.271,437.586z"/>
			<path fill-rule="evenodd" clip-rule="evenodd" fill="#181818" d="M295.263,409.603c2.114-0.129,3.16,0.889,3.199,2.984
				C297.396,411.592,296.33,410.598,295.263,409.603z"/>
			<path fill-rule="evenodd" clip-rule="evenodd" fill="#6A6A6A" d="M299.511,439.489c0.889-0.479,2.136,0.261,2.842-0.838
				c1.163,0.295,1.145,1.188,0.468,1.698C301.519,441.33,300.457,440.413,299.511,439.489z"/>
			<path fill-rule="evenodd" clip-rule="evenodd" fill="#3B3B3B" d="M361.571,454.5c0.629,0.331,1.259,0.662,1.888,0.993
				c0.033,0.932,0.068,1.862,0.102,2.794C362.191,457.396,361.76,456.012,361.571,454.5z"/>
			<path fill-rule="evenodd" clip-rule="evenodd" fill="#4E4E4E" d="M352.656,456.434c-1.606-0.44-2.518-1.586-3.104-3.062
				C351.169,453.803,352.299,454.727,352.656,456.434z"/>
			<path fill-rule="evenodd" clip-rule="evenodd" fill="#646464" d="M254.397,423.32c-0.752-1.133-2.059-0.423-3.008-0.904
				c1.161-1.221,2.694-0.766,4.094-0.91C255.81,422.523,255.823,423.353,254.397,423.32z"/>
			<path fill-rule="evenodd" clip-rule="evenodd" fill="#1B1B1B" d="M338.487,445.443c0.353,0.025,0.706,0.052,1.058,0.077
				c-0.638,1.643-0.104,3.229,0.227,4.826C337.564,449.179,338.678,447.14,338.487,445.443z"/>
			<path fill-rule="evenodd" clip-rule="evenodd" fill="#454545" d="M245.475,411.478c-0.829,0.268-1.658,0.534-2.488,0.801
				c2.19-2.721,1.842-4.875-1.096-6.948c-2.366-1.67-4.398-3.812-6.578-5.744c0.698-0.664,1.398-0.691,2.102-0.008
				c1.695,1.307,3.391,2.613,5.087,3.92C244.439,405.806,249.433,406.975,245.475,411.478z"/>
			<path fill-rule="evenodd" clip-rule="evenodd" fill="#262626" d="M228.405,424.476c1.012,0.611,1.297,1.623,0.756,2.514
				c-3.151,5.185-2.591,10.939-2.705,16.597C223.969,436.896,225.787,430.646,228.405,424.476z"/>
			<path fill-rule="evenodd" clip-rule="evenodd" fill="#2C2C2C" d="M237.416,399.578c-0.701,0.003-1.401,0.006-2.102,0.008
				c-3.284-1.612-5.32-4.577-7.731-7.135c-0.076-0.624-0.151-1.247-0.227-1.87C231.302,392.916,233.839,396.828,237.416,399.578z"/>
			<path fill-rule="evenodd" clip-rule="evenodd" fill="#0C0C0C" d="M347.467,372.491c1.014-6.648,1.598-13.435,6.054-18.985
				c0.612,0,1.224,0.001,1.835,0.001c0.756,0.545,0.715,1.134,0.098,1.754c-4.045,12.167-4.642,24.903-6.183,37.482
				c-0.156,1.276,0.314,2.683-0.811,3.748c-2.54,0.807-3.269,0.251-3.099-2.783c0.156-2.788,1.326-5.543,0.146-8.354
				c-0.446-2.502-0.465-5.006-0.022-7.511C346.088,376.041,345.98,373.969,347.467,372.491z"/>
			<path fill-rule="evenodd" clip-rule="evenodd" fill="#101010" d="M346.381,385.505c2.156,2.238,0.584,4.599,0.42,6.983
				c-0.089,1.278-2.153,4.098,1.659,4.003c0.297,2.62,1.466,5.226,0.128,7.871c-0.065,0.737-0.131,1.476-0.196,2.213
				c-0.257,2.048,0.079,4.436-2.839,4.962l-0.191-0.14c-2.381-3.786-0.87-7.983-1.227-11.981c-0.188-2.112-0.045-4.256-0.037-6.384
				C344.416,390.39,343.322,387.315,346.381,385.505z"/>
			<path fill-rule="evenodd" clip-rule="evenodd" fill="#2C2C2C" d="M357.477,350.475c-1.539-2.538-1.455-4.429,1.986-4.98
				C359.176,347.304,358.579,348.99,357.477,350.475z"/>
			<path fill-rule="evenodd" clip-rule="evenodd" fill="#2C2C2C" d="M355.453,355.261c-0.031-0.584-0.063-1.169-0.096-1.754
				c0.25-1.324,0.666-2.532,2.113-3.019C356.947,352.143,356.914,354.004,355.453,355.261z"/>
			<path fill-rule="evenodd" clip-rule="evenodd" fill="#6C6C6C" d="M355.192,398.47c-0.652,0.327-1.306,0.654-1.958,0.98
				c0.509-1.27,1.018-2.539,1.527-3.809C355.699,396.463,355.468,397.463,355.192,398.47z"/>
			<path fill-rule="evenodd" clip-rule="evenodd" fill="#FAFAFA" d="M286.444,423.623c-1.46-0.958-2.819-2.127-4.679-2.257
				c-1.14-0.606-2.458-0.19-3.63-0.629c-7.5,0.901-12.678-2.978-17.148-8.324c-0.521-3.173,2.382-3.184,4.026-4.359
				c3.774-1.147,7.57-1.695,11.432-0.418c6.035,2.745,7.951,8.783,11.074,13.855C288.215,422.733,288.114,423.573,286.444,423.623z"
				/>
			<path fill-rule="evenodd" clip-rule="evenodd" fill="#262626" d="M274.497,449.434c-0.274,0.131-0.562,0.211-0.864,0.24
				c-2.083,0.031-4.256,0.528-6.005-1.161c-0.363-0.797-0.25-1.505,0.393-2.114c3.988-5.202,2.748-10.435,0.041-15.642
				c-0.763-1.466-1.705-2.839-2.564-4.255c3.64-2.768,4.367,1.89,6.644,2.685c1.508-0.779-0.098-2.076,0.544-2.943
				c0.605,0.436,1.21,0.873,1.814,1.31c1.822,2.205,2.271,5.04,3.455,7.54C278.372,440.253,277.795,445.172,274.497,449.434z"/>
			<path fill-rule="evenodd" clip-rule="evenodd" fill="#101010" d="M269.527,390.416c-2.069-1.564-4.436-2.768-6.01-4.935
				c-0.738-1.937-4.262-3.416-0.985-6.01c2.811,0.994,4.539,3.492,6.967,5.016c0.337,0.665,0.673,1.33,1.01,1.995
				C269.06,387.514,269.615,389.045,269.527,390.416z"/>
			<path fill-rule="evenodd" clip-rule="evenodd" fill="#2C2C2C" d="M261.712,412.373c0.416,0.263,0.91,0.453,1.237,0.801
				c4.293,4.55,9.276,7.562,15.8,7.211c-1.525,1.428-3.71-0.198-5.256,1.136c-1.333-0.001-2.665-0.001-3.998-0.001
				c-2.688-2.332-5.375-4.663-8.063-6.995c-0.63-0.611-1.597-1.078-0.96-2.233C260.905,412.034,261.317,412.075,261.712,412.373z"/>
			<path fill-rule="evenodd" clip-rule="evenodd" fill="#2D2D2D" d="M276.443,407.636c-3.914,0.432-7.956-0.679-11.766,0.986
				c-0.61,0.429-1.047,0.294-1.31-0.403c2.235-1.201,4.631-1.834,7.15-2.033C272.414,406.99,274.853,405.584,276.443,407.636z"/>
			<path fill-rule="evenodd" clip-rule="evenodd" fill="#070707" d="M264.499,424.501c1.055-1.996,2.52-3.295,4.968-2.924
				C270.5,427.122,266.048,423.344,264.499,424.501z"/>
			<path fill-rule="evenodd" clip-rule="evenodd" fill="#0A0A0A" d="M304.395,421.645c0.021-0.709,0.041-1.417,0.061-2.126
				c0.31-0.02,0.62-0.04,0.931-0.062c-0.385,1.893,2.917,1.918,2.053,4.053c-0.783,0.469-0.934,1.237-0.977,2.059
				c-2.561,0.109-0.773-2.304-1.791-3.089C304.518,422.221,304.426,421.942,304.395,421.645z"/>
			<path fill-rule="evenodd" clip-rule="evenodd" fill="#262626" d="M273.494,421.521c1.464-1.713,3.525-0.66,5.256-1.136
				c1.163-0.156,2.193,0.092,3.015,0.981C279.008,421.418,276.251,421.469,273.494,421.521z"/>
			<path fill-rule="evenodd" clip-rule="evenodd" fill="#636363" d="M286.444,423.623c1.202-0.286,0.817-1.37,1.074-2.132
				c1.345,0.87,2.375,2.342,1.399,3.555C288.218,425.917,286.937,424.771,286.444,423.623z"/>
			<path fill-rule="evenodd" clip-rule="evenodd" fill="#212121" d="M245.475,411.478c3.017-4.152-1.972-5.323-2.973-7.979
				c4.185,0.483,4.446,4.293,5.967,7.036c0.009,0.294,0.051,0.582,0.127,0.865C247.55,411.16,246.546,412.634,245.475,411.478z"/>
			<path fill-rule="evenodd" clip-rule="evenodd" fill="#565656" d="M263.367,408.219c0.437,0.134,0.874,0.269,1.31,0.403
				c-1.162,1.113-3.672,1.16-2.965,3.751c-0.416,0.079-0.833,0.159-1.249,0.238c-2.269-0.6-3.102-1.872-1.915-4.09
				C260.155,408.421,261.761,408.319,263.367,408.219z"/>
			<path fill-rule="evenodd" clip-rule="evenodd" fill="#141414" d="M258.549,408.521c-0.216,1.764,0.819,2.94,1.916,4.089
				c0.323,0.639,0.646,1.276,0.969,1.914C256.438,412.159,255.815,410.864,258.549,408.521z"/>
			<path fill-rule="evenodd" clip-rule="evenodd" fill="#222222" d="M279.499,361.501c2.322-3.3,5.356-5.806,8.609-8.163
				c2.636-1.911,5.035-1.974,8.339-0.01c-4.865,4.176-9.457,8.128-14.078,12.048c-0.184,0.155-0.634-0.003-0.96-0.016
				c0.027-0.287,0.054-0.574,0.082-0.861C282.713,362.246,278.341,363.711,279.499,361.501z"/>
			<path fill-rule="evenodd" clip-rule="evenodd" fill="#242424" d="M279.499,361.501c-0.139,1.533,3.974,0.241,1.992,2.998
				c-2.659-1.967-2.834,1.013-4.004,2.012c-1.328-0.369-2.655-0.737-3.982-1.107C275.61,364.268,278.295,364.022,279.499,361.501z"
				/>
			<path fill-rule="evenodd" clip-rule="evenodd" fill="#353535" d="M340.322,439.661c-0.604-0.062-1.207-0.122-1.811-0.183
				c0.001,0,0.01,0.01,0.01,0.01c-0.323-0.415-0.328-0.835-0.02-1.258c2.289-1.611,5.498-0.337,7.623-2.438
				c1.516-1.177,0.793-2.558,0.338-3.913c-1.527-3.802-2.236-7.794-2.874-11.807c-0.206-1.231-0.271-2.458,0.148-3.663
				c0.22-0.461,0.562-0.798,1.038-0.993c0.236,0.032,0.472,0.069,0.707,0.11c2.342,1.842,0.798,4.808,2.017,6.975
				c-0.167,3.323,0.925,6.404,1.759,9.549c0.549,2.076,1.97,3.997,0.215,6.447c-0.795,1.11,1.25,0.679,1.968,1.021
				c0.469,0.429,0.481,0.871,0.042,1.328c-1.889,0.826-3.775,1.678-5.93,1.175C343.957,440.918,341.897,440.824,340.322,439.661z"/>
			<path fill-rule="evenodd" clip-rule="evenodd" fill="#F0F0F0" d="M362.615,442.322c-0.887-0.844-1.922-1.138-3.116-0.85
				c-2.485-2.209,0.18-3.962,0.666-5.818c0.375-1.429,1.598-2.636,2.443-3.942c0.296-0.069,0.593-0.14,0.89-0.21
				c0.31,0.348,0.619,0.695,0.929,1.043c1.397,1.45-0.194,3.516,1.03,5.002C365.213,439.557,367.09,442.83,362.615,442.322z"/>
			<path fill-rule="evenodd" clip-rule="evenodd" fill="#4F4F4F" d="M345.516,392.515c-0.051,6.295-0.102,12.59-0.153,18.884
				c-1.806,1.104-2.068,2.434-0.588,4.018c-0.167,0.098-0.345,0.176-0.53,0.231c-0.742,0.767-0.883,1.849-1.422,2.727
				c-0.914,1.533-1.446,3.421-3.553,3.854c-0.769,0.046-1.447-0.149-1.994-0.72c0.131-5.316,4.282-9.072,5.409-14.004
				c1.354-4.831-0.697-9.97,1.352-14.731C344.455,392.263,344.949,392.178,345.516,392.515z"/>
			<path fill-rule="evenodd" clip-rule="evenodd" fill="#050505" d="M345.553,411.537c1.472-1.354,1.048-3.792,2.839-4.963
				c0.624,0.176,1.47-0.195,1.788,0.729c-1.198,1.574-0.63,3.415-0.777,5.148c-0.723-0.229-1.289-0.557-2.061,0.262
				C344.928,415.278,345.749,412.563,345.553,411.537z"/>
			<path fill-rule="evenodd" clip-rule="evenodd" fill="#161616" d="M351.445,440.604c-0.001-0.362-0.002-0.724-0.004-1.085
				c1.102,1.927,3.406,1.67,4.98,2.738c-1.699-0.412-3.338,1.899-5.066,0.11C350.904,441.755,350.92,441.166,351.445,440.604z"/>
			<path fill-rule="evenodd" clip-rule="evenodd" fill="#262626" d="M347.499,422.501c-1.589-2.061-0.921-4.772-2.017-6.976
				C349.175,416.978,346.854,420.168,347.499,422.501z"/>
			<path fill-rule="evenodd" clip-rule="evenodd" fill="#FCFCFC" d="M333.471,369.502c-0.584-3.241,2.923-5.5,2.113-8.795
				c0.048-0.652,0.397-0.948,1.049-0.887c1.888-6.207,3.805-12.402,6.976-18.115c1.009-1.325,2.097-2.399,3.892-1.22
				c1.011,0.997,2.021,1.994,3.032,2.992c0.045,1.97,0.09,3.94,0.135,5.911c-0.632,2.399-1.618,4.752-0.969,7.321
				c-1.339,4.937-2.677,9.873-4.016,14.81c0.845,1.68,0.157,3.237-0.368,4.811c-0.74,1.652-1.512,3.295-2.014,5.045
				c-0.373,1.052-0.629,2.136-0.878,3.224c-0.286,1.098-0.739,2.133-1.176,3.175c-0.808,2.643-2.733,4.766-3.431,7.462
				c-0.383,1.743-0.922,3.424-1.8,4.989c-1.202,1.279-2.042,3.945-4.327,1.156c0.827-8.935-0.408-17.936,0.902-26.851l0.01,0.093
				C333.592,373.035,332.4,371.076,333.471,369.502z"/>
			<path fill-rule="evenodd" clip-rule="evenodd" fill="#090909" d="M334.486,360.473c-0.714,2.354-1.379,4.724-2.152,7.058
				c-0.857,2.588-1.832,0.575-2.757,0.017c1.117-5.632,2.437-11.197,5.317-16.619c1.02,2.229-0.927,3.786-0.398,5.573
				C335.129,357.826,333.542,359.146,334.486,360.473z"/>
			<path fill-rule="evenodd" clip-rule="evenodd" fill="#3C3C3C" d="M347.5,340.485c-1.297,0.406-2.594,0.813-3.892,1.22
				c-0.155-2.067,0.919-3.014,2.876-3.151C346.823,339.197,347.162,339.841,347.5,340.485z"/>
			<path fill-rule="evenodd" clip-rule="evenodd" fill="#090909" d="M336.633,359.82c-0.35,0.295-0.699,0.591-1.049,0.887
				c-0.363-0.402-0.727-0.805-1.091-1.207c-1.039-1.464,0.007-2.224,1.013-2.995C336.729,357.321,336.326,358.691,336.633,359.82z"
				/>
			<path fill-rule="evenodd" clip-rule="evenodd" fill="#161616" d="M335.506,356.505c-0.338,0.998-0.676,1.996-1.013,2.995
				c-0.004,0.324-0.006,0.648-0.007,0.973c-1.413-1.327-1.371-2.651,0.01-3.972C334.832,356.502,335.169,356.503,335.506,356.505z"
				/>
			<path fill-rule="evenodd" clip-rule="evenodd" fill="#0E0E0E" d="M322.459,435.573c-0.863-0.746-1.49-2.141-3.008-1.102
				c-1.343-1.095-0.412-2.682-0.859-3.971c-0.082-0.562-0.165-1.125-0.248-1.688c0.162-1.061,0.219-2.261,1.836-1.382
				c0.952,0.823-1.357,4.278,2.589,2.991c0.812-0.265-0.806,2.051-0.185,3.215c0.508,0.437,0.507,0.972,0.299,1.547
				C322.742,435.314,322.601,435.444,322.459,435.573z"/>
			<path fill-rule="evenodd" clip-rule="evenodd" fill="#282828" d="M318.592,430.501c1.41,1.08,0.854,2.587,0.86,3.971
				c-0.964-0.33-1.927-0.661-2.89-0.991c-0.523-0.384-0.52-0.763,0.011-1.137C317.74,432.271,318.29,431.521,318.592,430.501z"/>
			<path fill-rule="evenodd" clip-rule="evenodd" fill="#212121" d="M312.502,417.463c-0.011-0.36-0.021-0.721-0.031-1.083
				c0.342-0.962,0.684-1.923,1.025-2.884c1.443,1.096,0.9,2.662,0.969,4.084C313.811,417.541,313.156,417.502,312.502,417.463z"/>
			<path fill-rule="evenodd" clip-rule="evenodd" fill="#0A0A0A" d="M316.573,432.344c-0.004,0.379-0.008,0.758-0.011,1.137
				c-1.448-0.618-2.468-1.662-3.082-3.108C314.93,430.372,315.701,431.438,316.573,432.344z"/>
			<path fill-rule="evenodd" clip-rule="evenodd" fill="#1C1C1C" d="M361.438,408.555c-1.354-1.702-1.326-3.39,0.053-5.063
				C361.474,405.179,361.456,406.866,361.438,408.555z"/>
			<path fill-rule="evenodd" clip-rule="evenodd" fill="#F0F0F0" d="M324.398,432.408c0.595-1.319-0.487-3.063,1.05-4.145
				c0.851,0.37,1.495-2.726,2.372-0.231c0.838,2.382,2.168,4.712,1.57,7.416c-1.736,2.322-3.527,2.219-5.367,0.122
				C323.559,434.447,323.873,433.415,324.398,432.408z"/>
			<path fill-rule="evenodd" clip-rule="evenodd" fill="#0D0D0D" d="M324.426,435.596c1.68,0.781,3.367,1.81,4.965-0.147
				c3.09-3.297-0.535-6.619,0.039-9.926c1.635,1.596,1.797,3.753,2.191,5.813c0.372,1.94,2.281,5.037-0.228,5.498
				c-2.698,0.495-6.714,3.726-8.935-1.262c0,0.001,0.262-0.291,0.262-0.291C323.381,434.89,323.965,434.914,324.426,435.596z"/>
			<path fill-rule="evenodd" clip-rule="evenodd" fill="#0D0D0D" d="M327.621,412.541c2.053,4.137-0.179,8.876,1.83,13.02
				c-2.275-1.276-3.187-2.853-2.354-5.681C327.773,417.582,327.482,414.998,327.621,412.541z"/>
			<path fill-rule="evenodd" clip-rule="evenodd" fill="#2B2B2B" d="M344.358,376.344c0.441-1.608,0.883-3.216,1.324-4.824
				c0.595,0.324,1.19,0.648,1.784,0.972c-0.226,1.685,0.697,3.585-0.939,5.005c-0.467,0.479-0.67,1.291-1.559,1.239
				C343.863,378.169,343.912,377.307,344.358,376.344z"/>
			<path fill-rule="evenodd" clip-rule="evenodd" fill="#1F1F1F" d="M293.202,385.335c-0.552,1.724-1.104,3.448-1.657,5.172
				c-0.353,0.662-0.707,1.324-1.061,1.985c-0.807-0.445-0.966-1.198-0.964-2.028c0.417-1.965,1.643-3.909,0.153-5.924
				c0.202-1.121-0.865-3.129,0.865-3.153C292.634,381.356,293.143,383.431,293.202,385.335z"/>
			<path fill-rule="evenodd" clip-rule="evenodd" fill="#141414" d="M289.673,384.54c3.865,2.076,0.379,3.962-0.153,5.925
				c-0.021-0.679-0.043-1.356-0.065-2.035C289.527,387.133,289.6,385.836,289.673,384.54z"/>
			<path fill-rule="evenodd" clip-rule="evenodd" fill="#838383" d="M365.457,437.547c-1.363-1.458-0.33-3.408-1.03-5.002
				c0.124-1.419-0.282-2.952,0.891-4.146c0.417,0.924-0.337,2.318,1.134,2.816c0.258,1.881-1.407,3.502-0.743,5.441
				C365.688,436.972,365.604,437.269,365.457,437.547z"/>
			<path fill-rule="evenodd" clip-rule="evenodd" fill="#9C9C9C" d="M324.426,435.596c-0.568-0.104-1.137-0.209-1.705-0.313
				c-0.046-0.549-0.092-1.098-0.137-1.646c0.604-0.409,1.209-0.818,1.814-1.229C324.407,433.471,324.416,434.533,324.426,435.596z"
				/>
			<path fill-rule="evenodd" clip-rule="evenodd" fill="#1E1E1E" d="M262.532,379.472c-1.291,2.269,2.018,3.784,0.985,6.01
				l-0.483,0.002c0,0-0.483-0.004-0.483-0.004c-1.939-1.18-3.786-2.434-4.004-4.993c0.277-1.289-0.612-3.357,2.044-3.055
				c0.636,0.353,1.271,0.705,1.907,1.058C262.488,378.817,262.499,379.146,262.532,379.472z"/>
			<path fill-rule="evenodd" clip-rule="evenodd" fill="#292929" d="M260.591,377.432c-0.682,1.019-1.363,2.036-2.044,3.055
				c-1.263-0.684-0.901-1.95-1.085-3.021C258.491,376.146,259.536,376.303,260.591,377.432z"/>
			<path fill-rule="evenodd" clip-rule="evenodd" fill="#090909" d="M251.479,453.604c-0.077,1.095-0.476,1.834-1.76,1.593
				c-2.237-2.091-4.163-4.569-7.131-5.752c-3.102-5.358-6.267-10.708-2.118-16.971c0.672-0.33,1.345-0.66,2.018-0.99
				c0.801,0.447,0.983,1.21,1.037,2.038c0.203,2.675,0.06,5.388,0.902,7.99C246.786,445.537,246.88,450.884,251.479,453.604z"/>
			<path fill-rule="evenodd" clip-rule="evenodd" fill="#6E6E6E" d="M257.487,428.474c0.381,0.041,0.763,0.082,1.144,0.123
				c-0.107,4.423-4.293,4.614-6.872,6.282c-1.346,0.87-1.784-0.655-0.232-4.344C253.847,430.812,255.178,428.23,257.487,428.474z"/>
			<path fill-rule="evenodd" clip-rule="evenodd" fill="#161616" d="M267.628,448.513c2.017,0.309,4.32-0.867,6.005,1.161
				c-0.438,0.541-0.876,1.082-1.315,1.622c-1.608,0.759-3.216,1.518-4.825,2.275c-0.984-1.072-0.766-2.189-0.125-3.323
				C267.455,449.67,267.541,449.091,267.628,448.513z"/>
			<path fill-rule="evenodd" clip-rule="evenodd" fill="#2A2A2A" d="M257.487,428.474c-1.588,1.841-2.884,4.523-5.96,2.062
				c0.757-1.614,1.67-3.046,3.709-3.149C256.107,427.499,256.983,427.602,257.487,428.474z"/>
			<path fill-rule="evenodd" clip-rule="evenodd" fill="#373737" d="M267.368,450.248c0.042,1.107,0.083,2.215,0.125,3.323
				c-0.347,0.984-1.095,1.534-2.033,1.877c-0.339-0.349-0.677-0.697-1.015-1.046C264.737,452.538,264.736,450.467,267.368,450.248z"
				/>
			<path fill-rule="evenodd" clip-rule="evenodd" fill="#393939" d="M244.427,441.512c-1.24-2.558-3.175-5.036-0.902-7.99
				c0.347-0.003,0.694-0.006,1.041-0.009C244.52,436.179,244.473,438.845,244.427,441.512z"/>
			<path fill-rule="evenodd" clip-rule="evenodd" fill="#F2F2F2" d="M343.664,408.589c-2,4.312-3.999,8.623-5.998,12.935
				c0.213,2.462,0.891,5.187-3.01,5.314c-1.948-1.73-1.08-4.554-2.513-6.484c-0.422-2.039,0.304-4.179-0.542-6.181
				c0.004-0.446,0.008-0.893,0.012-1.34c0.735-1.488-0.141-3.343,1.058-4.729c1.546-2.072,1.595-4.76,2.841-6.957
				c0.961-1.588,1.314-3.447,2.235-5.056c1.28-2.044,2.267-4.224,3.017-6.521c0.727-1.041,1.029-2.764,2.969-1.842
				C344.223,394.687,344.104,401.638,343.664,408.589z"/>
			<path fill-rule="evenodd" clip-rule="evenodd" fill="#090909" d="M333.438,408.455c-0.607,1.46-1.216,2.919-1.824,4.378
				c-1.669-5.597-1.535-11.135-0.59-16.933c0.868-5.316,0.312-10.857,0.493-16.296c0.058-1.724-0.702-3.69,1.075-5.074
				c-0.814,9.344-0.437,18.695-0.168,28.046C334.08,404.309,334.432,406.266,333.438,408.455z"/>
			<path fill-rule="evenodd" clip-rule="evenodd" fill="#D2D2D2" d="M347.504,455.416c0.67,0.696,1.341,1.393,2.012,2.089
				c-0.555,0.934,0.885,2.653-0.82,2.947c-1.512,0.26-3.211,0.637-4.58-0.988c-1.807-2.142-3.297-4.449-4.586-6.913
				C343.055,451.093,344.955,454.156,347.504,455.416z"/>
			<path fill-rule="evenodd" clip-rule="evenodd" fill="#DEDEDE" d="M332.496,449.646c-1.664-0.39-3.328-0.779-4.992-1.169
				c-0.486-0.79-0.972-1.579-1.521-2.473c2.113-1.206,4.401,0.261,6.501-0.454c0.572,0.364,1.145,0.729,1.717,1.093
				C335.207,448.538,334.446,449.43,332.496,449.646z"/>
			<path fill-rule="evenodd" clip-rule="evenodd" fill="#3B3B3B" d="M334.57,426.378c3.328-0.153,1.262-3.748,3.096-4.854
				c0.6-0.005,1.199-0.01,1.799-0.016c0.853,0.748,0.957,1.715,0.821,2.757c-0.721,2.309-0.589,5.035-3.12,6.475
				c-0.938,0.147-1.207-0.661-1.682-1.179c-0.326-0.353-0.653-0.705-0.98-1.058C333.9,427.774,333.926,427.066,334.57,426.378z"/>
			<path fill-rule="evenodd" clip-rule="evenodd" fill="#959595" d="M324.598,443.372c-0.176-0.898-0.117-1.694,0.901-2.072
				c2.001,0.632,4.337-0.512,6.145,1.154C329.461,444.031,327.084,444.125,324.598,443.372z"/>
			<path fill-rule="evenodd" clip-rule="evenodd" fill="#090909" d="M338.482,438.558c0.003,0.311,0.016,0.621,0.039,0.931
				c-1.609-0.198-3.289-0.667-2.542-2.692c0.688-1.867-0.896-2.258-1.479-3.299c0.644-0.562,1.385-0.744,2.218-0.571
				C339.106,434.239,338.805,436.396,338.482,438.558z"/>
			<path fill-rule="evenodd" clip-rule="evenodd" fill="#0D0D0D" d="M334.57,426.378c-0.022,0.708-0.045,1.416-0.066,2.125
				c-1.759-2.042-1.965-4.555-2.146-7.075c-0.312-0.439-0.224-0.801,0.212-1.096C333.236,422.348,333.903,424.362,334.57,426.378z"
				/>
			<path fill-rule="evenodd" clip-rule="evenodd" fill="#090909" d="M332.57,420.332c-0.07,0.366-0.141,0.732-0.211,1.098
				c-1.67-2.271-0.594-4.829-0.758-7.257C332.656,416.11,332.312,418.269,332.57,420.332z"/>
			<path fill-rule="evenodd" clip-rule="evenodd" fill="#0D0D0D" d="M336.624,433.46c-0.708,0.013-1.415,0.024-2.123,0.037
				c0.328-1.312,0.656-2.625,0.983-3.937c0.383,0.38,0.767,0.76,1.149,1.14C337.363,431.622,337.405,432.543,336.624,433.46z"/>
			<path fill-rule="evenodd" clip-rule="evenodd" fill="#2E2E2E" d="M304.671,422.479c0.597,1.028,1.195,2.058,1.792,3.088
				c-0.018,0.342-0.036,0.683-0.054,1.024C303.707,426.118,304.875,424.009,304.671,422.479z"/>
			<path fill-rule="evenodd" clip-rule="evenodd" fill="#161616" d="M333.471,369.502c0.016,1.759,0.088,3.527-0.869,5.121
				C332.518,372.853,331.881,370.988,333.471,369.502z"/>
			<path fill-rule="evenodd" clip-rule="evenodd" fill="#2A2A2A" d="M274.497,449.434c1.868-4.808,3.777-9.608,2.968-14.947
				c-0.283-0.285-0.361-0.551-0.235-0.797c0.121-0.237,0.235-0.355,0.342-0.355C279.48,439.261,279.445,444.816,274.497,449.434z"/>
			<path fill-rule="evenodd" clip-rule="evenodd" fill="#272727" d="M277.573,433.334c-0.036,0.384-0.071,0.769-0.107,1.152
				c-1.303-2.177-2.395-4.444-2.964-6.934C276.571,428.924,277.296,431.01,277.573,433.334z"/>
			<path fill-rule="evenodd" clip-rule="evenodd" fill="#F0F0F0" d="M364.371,455.521c-0.023-0.333-0.047-0.666-0.07-0.999
				c0.094-2.324,0.188-4.647,0.281-6.971c0.98,0.299,1.962,0.599,2.942,0.897c0.263,2.924,4.218,4.517,2.89,8.015
				C368.166,457.651,366.047,458.013,364.371,455.521z"/>
			<path fill-rule="evenodd" clip-rule="evenodd" fill="#202020" d="M254.533,457.215c-0.014-0.171-0.016-0.343-0.004-0.514
				c1.727,0.001,3.454,0.001,5.18,0.001c0,0.171,0,0.342-0.001,0.513C257.982,457.215,256.258,457.215,254.533,457.215z"/>
			<path fill-rule="evenodd" clip-rule="evenodd" fill="#D5D5D5" d="M351.445,440.604c-0.029,0.588-0.061,1.176-0.09,1.764
				c-0.663,0.347-1.326,0.694-1.988,1.042c-3.29,0.029-6.579,0.06-9.867,0.09c-0.004-0.673-0.008-1.345-0.011-2.018
				c1.405-0.886,2.944-1.06,4.556-0.851c0.512,0.139,0.989,0.354,1.434,0.645C347.51,441.431,349.336,439.757,351.445,440.604z"/>
			<path fill-rule="evenodd" clip-rule="evenodd" fill="#262626" d="M345.479,441.275c-0.348-0.056-0.695-0.112-1.043-0.168
				c-1.325-0.476-2.926,0.518-4.099-0.768c0.046-0.228,0.042-0.455-0.013-0.681C342.109,439.978,344.528,438.281,345.479,441.275z"
				/>
			<path fill-rule="evenodd" clip-rule="evenodd" fill="#353535" d="M340.337,440.34c1.354,0.319,2.892-0.338,4.099,0.768
				c-1.648,0.125-3.298,0.249-4.946,0.374C339.771,441.102,340.055,440.721,340.337,440.34z"/>
			<path fill-rule="evenodd" clip-rule="evenodd" fill="#797979" d="M345.391,378.198c0.379-0.234,0.758-0.468,1.137-0.702
				c-0.049,2.67-0.098,5.339-0.146,8.009c-0.979,2.251-0.625,4.667-0.865,7.01c-0.279-0.006-0.551,0.037-0.814,0.13
				c-1.463-3.824-0.887-7.784-0.786-11.714C343.903,379.748,344.478,378.881,345.391,378.198z"/>
			<path fill-rule="evenodd" clip-rule="evenodd" fill="#2C2C2C" d="M274.493,435.503c0.727,1.419,1.444,2.839,0.31,4.697
				c-2.007-1.306-1.037-3.187-1.307-4.699C273.829,435.144,274.161,435.16,274.493,435.503z"/>
			<path fill-rule="evenodd" clip-rule="evenodd" fill="#2B2B2B" d="M274.493,435.503c-0.332-0.001-0.664-0.002-0.997-0.002
				c-0.826-0.671-1.553-1.803-0.318-2.205C274.161,432.975,274.389,434.52,274.493,435.503z"/>
			<path fill-rule="evenodd" clip-rule="evenodd" fill="#2A2A2A" d="M274.062,443.339c0.455,2.181,0.206,2.917-0.602,3.369
				c-0.116,0.065-0.645-0.305-0.629-0.35C273.092,445.616,273.41,444.894,274.062,443.339z"/>
			<path fill-rule="evenodd" clip-rule="evenodd" fill="#F6F6F6" d="M336.624,433.46c0.003-0.92,0.007-1.84,0.01-2.76
				c1.913-1.743,1.312-4.56,2.773-6.496c1.286-1.577,1.356-3.905,3.185-5.148c0.729-0.227,1.382-0.113,1.943,0.421
				c1.029,4.187,2.059,8.373,3.088,12.56c0.147,0.641,0.49,1.309,0.182,1.936c-0.258,0.523-0.609,2.204-0.334,2.421
				c-2.437,3.044-5.827,2.128-8.988,2.165C336.485,437.36,338.176,434.819,336.624,433.46z"/>
			<path fill-rule="evenodd" clip-rule="evenodd" fill="#F6F6F6" d="M347.471,436.393c-0.988-0.47-1.977-0.939-3.105-1.476
				c1.441-0.639,3.416-0.628,3.258-2.879C348.12,433.508,349.726,435.017,347.471,436.393z"/>
			<path fill-rule="evenodd" clip-rule="evenodd" fill="#B0B0B0" d="M344.535,419.477c-0.713-0.029-1.428-0.059-2.142-0.088
				c-0.452-0.642-0.438-1.271,0.049-1.887c0.27-0.94,0.536-1.883,1.802-1.854C344.342,416.924,344.438,418.2,344.535,419.477z"/>
			<path fill-rule="evenodd" clip-rule="evenodd" fill="#A0A0A0" d="M344.57,380.639c1.617,3.984-1.07,8.016,0.131,12.006
				c-0.61,5.298,0.704,10.721-1.037,15.944c-0.005-5.437,0.007-10.872-0.023-16.309c-0.009-1.588,0.633-3.336-0.957-4.604
				c-0.69-0.407-0.842-1.042-0.762-1.778c0.333-0.865,0.622-1.741,0.641-2.684C342.858,382.064,343.184,380.938,344.57,380.639z"/>
			<path fill-rule="evenodd" clip-rule="evenodd" fill="#626262" d="M342.442,417.502c-0.017,0.629-0.032,1.258-0.048,1.887
				c-1.016,1.593-1.271,3.656-2.987,4.815c0.02-0.898,0.039-1.798,0.058-2.696C340.457,420.173,341.449,418.837,342.442,417.502z"/>
			<path fill-rule="evenodd" clip-rule="evenodd" fill="#888888" d="M333.438,408.455c-0.304-1.965-1.908-3.707-1.014-5.879
				c2.085,0.018,1.788-2.314,3.059-3.1c0.784,0.415,0.539,1.24,0.754,1.884C335.676,403.872,335.362,406.481,333.438,408.455z"/>
			<path fill-rule="evenodd" clip-rule="evenodd" fill="#797979" d="M341.369,390.454c-0.916,2.087-1.832,4.173-2.747,6.26
				c-1.075-0.325-1.183-1.482-1.854-2.156c1.257-2.315,2.513-4.632,3.77-6.947C341.602,388.328,340.896,389.563,341.369,390.454z"/>
			<path fill-rule="evenodd" clip-rule="evenodd" fill="#5D5D5D" d="M336.768,394.558c1.363,0.078,1.68,1.056,1.854,2.156
				c-0.795,1.549-1.59,3.098-2.385,4.646c-0.252-0.628-0.502-1.256-0.754-1.884C335.911,397.837,336.34,396.197,336.768,394.558z"/>
			<path fill-rule="evenodd" clip-rule="evenodd" fill="#6C6C6C" d="M344.57,380.639c-0.365,0.948-0.729,1.896-1.093,2.844
				c-1.99,0.082-1.431-1.094-1.069-2.17c0.293-1.797,0.455-3.645,1.95-4.969c0.345,0.62,0.688,1.239,1.032,1.856
				C345.117,379.012,344.844,379.825,344.57,380.639z"/>
			<path fill-rule="evenodd" clip-rule="evenodd" fill="#6C6C6C" d="M341.369,390.454c-1.061-0.719-0.778-1.831-0.832-2.844
				c0.31-1.04,0.619-2.08,0.93-3.12c0.962-0.244,1.433,0.017,1.113,1.086c0.034,0.7,0.068,1.399,0.104,2.099
				C342.245,388.602,341.807,389.528,341.369,390.454z"/>
			<path fill-rule="evenodd" clip-rule="evenodd" fill="#797979" d="M342.58,385.576c-0.371-0.361-0.742-0.724-1.113-1.086
				c-0.007-1.154,0.088-2.278,0.941-3.178c0.151,0.824,0.188,1.705,1.07,2.171C343.497,384.317,343.318,385.066,342.58,385.576z"/>
		</g>
	</g>
</g>
</svg>
